<svg width="19" height="20" viewBox="0 0 19 20" fill="none" xmlns="http://www.w3.org/2000/svg">
<g clip-path="url(#clip0)">
<path d="M14.8438 6.97656H6.97656V3.92617C6.97656 2.5791 8.1084 1.48438 9.5 1.48438C10.8916 1.48438 12.0234 2.5791 12.0234 3.92617V5.34375H13.5078V3.92617C13.5078 1.75898 11.708 0 9.5 0C7.29199 0 5.49219 1.75898 5.49219 3.92617V6.97656H4.15625C2.92793 6.97656 1.92969 7.9748 1.92969 9.20312V16.7734C1.92969 18.0018 2.92793 19 4.15625 19H14.8438C16.0721 19 17.0703 18.0018 17.0703 16.7734V9.20312C17.0703 7.9748 16.0721 6.97656 14.8438 6.97656ZM15.5859 16.7734C15.5859 17.1816 15.252 17.5156 14.8438 17.5156H4.15625C3.74805 17.5156 3.41406 17.1816 3.41406 16.7734V9.20312C3.41406 8.79492 3.74805 8.46094 4.15625 8.46094H14.8438C15.252 8.46094 15.5859 8.79492 15.5859 9.20312V16.7734Z" fill="#A8A8A8"/>
<path d="M9.5 10.8177C8.74297 10.8177 8.12695 11.4338 8.12695 12.1908C8.12695 12.6732 8.3793 13.1 8.75781 13.3449V14.974C8.75781 15.3822 9.0918 15.7162 9.5 15.7162C9.9082 15.7162 10.2422 15.3822 10.2422 14.974V13.3449C10.6207 13.1 10.873 12.6732 10.873 12.1908C10.873 11.4338 10.257 10.8177 9.5 10.8177Z" fill="#A8A8A8"/>
</g>
<defs>
<clipPath id="clip0">
<rect width="19" height="19" fill="white" transform="translate(0 0.204468)"/>
</clipPath>
</defs>
</svg>
