<svg width="277" height="66" viewBox="0 0 277 66" fill="none" xmlns="http://www.w3.org/2000/svg">
<rect width="277" height="60" rx="30" fill="#014C79"/>
<path d="M100.972 26.938C100.84 26.71 100.348 26.596 99.496 26.596C98.38 26.596 97.534 26.974 96.958 27.73C96.382 28.486 96.094 29.578 96.094 31.006C96.094 33.97 97.204 35.452 99.424 35.452C99.46 35.452 99.616 35.452 99.892 35.452C100.18 35.452 100.45 35.416 100.702 35.344C100.954 35.26 101.104 35.176 101.152 35.092C101.2 35.008 101.224 34.876 101.224 34.696V33.256L103.06 33.382V36.496C102.124 36.988 100.936 37.234 99.496 37.234C97.66 37.234 96.256 36.718 95.284 35.686C94.324 34.654 93.844 33.118 93.844 31.078C93.844 29.95 94.006 28.966 94.33 28.126C94.654 27.286 95.092 26.632 95.644 26.164C96.724 25.264 98.008 24.814 99.496 24.814C100.696 24.814 101.824 25.06 102.88 25.552V28.612L101.044 28.738V27.334C101.044 27.154 101.02 27.022 100.972 26.938ZM105.311 34.984V26.218C105.311 26.026 105.275 25.894 105.203 25.822C105.143 25.75 105.029 25.708 104.861 25.696L104.231 25.66V24.166H107.435V29.008C108.059 28.12 108.935 27.676 110.063 27.676C110.975 27.676 111.677 27.94 112.169 28.468C112.673 28.984 112.925 29.764 112.925 30.808V35.506L113.951 35.56V37H109.667V35.632L110.261 35.578C110.441 35.554 110.573 35.506 110.657 35.434C110.741 35.35 110.783 35.2 110.783 34.984V31.276C110.783 30.652 110.681 30.172 110.477 29.836C110.285 29.5 109.901 29.332 109.325 29.332C108.761 29.332 108.305 29.512 107.957 29.872C107.621 30.22 107.453 30.646 107.453 31.15V35.506L108.479 35.56V37H104.195V35.632L104.789 35.578C104.969 35.554 105.101 35.506 105.185 35.434C105.269 35.35 105.311 35.2 105.311 34.984ZM119.19 27.676C120.09 27.676 120.804 27.898 121.332 28.342C121.86 28.774 122.124 29.386 122.124 30.178C122.124 30.706 122.01 31.174 121.782 31.582C121.554 31.978 121.272 32.29 120.936 32.518C120.6 32.746 120.192 32.932 119.712 33.076C118.908 33.316 118.002 33.436 116.994 33.436C117.03 34.072 117.228 34.588 117.588 34.984C117.948 35.368 118.5 35.56 119.244 35.56C119.988 35.56 120.732 35.296 121.476 34.768L122.16 36.226C121.92 36.442 121.512 36.664 120.936 36.892C120.372 37.12 119.724 37.234 118.992 37.234C117.528 37.234 116.454 36.832 115.77 36.028C115.086 35.212 114.744 34.096 114.744 32.68C114.744 31.264 115.134 30.076 115.914 29.116C116.694 28.156 117.786 27.676 119.19 27.676ZM118.362 31.798C118.806 31.714 119.214 31.54 119.586 31.276C119.958 31 120.144 30.676 120.144 30.304C120.144 29.572 119.784 29.206 119.064 29.206C118.392 29.206 117.876 29.476 117.516 30.016C117.156 30.544 116.958 31.18 116.922 31.924C117.45 31.912 117.93 31.87 118.362 31.798ZM125.236 32.374C125.236 33.394 125.428 34.186 125.812 34.75C126.196 35.314 126.748 35.596 127.468 35.596C128.2 35.596 128.92 35.338 129.628 34.822L130.402 36.208C129.55 36.904 128.482 37.252 127.198 37.252C125.914 37.252 124.9 36.85 124.156 36.046C123.424 35.23 123.058 34.03 123.058 32.446C123.058 30.862 123.478 29.674 124.318 28.882C125.17 28.078 126.124 27.676 127.18 27.676C128.248 27.676 129.238 27.922 130.15 28.414V30.754L128.494 30.88V30.016C128.494 29.692 128.374 29.494 128.134 29.422C127.906 29.338 127.666 29.296 127.414 29.296C125.962 29.296 125.236 30.322 125.236 32.374ZM132.225 34.984V26.218C132.225 26.026 132.189 25.894 132.117 25.822C132.057 25.75 131.943 25.708 131.775 25.696L131.145 25.66V24.166H134.349V31.96C135.009 31.9 135.585 31.696 136.077 31.348C136.569 31 136.905 30.544 137.085 29.98C137.121 29.86 137.139 29.764 137.139 29.692C137.139 29.488 137.025 29.386 136.797 29.386L136.113 29.35V27.946H139.839V29.404L138.975 29.44C138.819 30.664 138.291 31.63 137.391 32.338L139.155 35.506L140.253 35.56V37H137.625L135.573 33.256C135.177 33.364 134.769 33.448 134.349 33.508V35.506H134.367L135.393 35.56V37H131.109V35.632L131.703 35.578C131.883 35.554 132.015 35.506 132.099 35.434C132.183 35.35 132.225 35.2 132.225 34.984ZM144.03 37V35.542L144.624 35.488C144.972 35.452 145.146 35.284 145.146 34.984V26.614L144.12 26.56V25.03H149.268C150.612 25.03 151.656 25.348 152.4 25.984C153.156 26.608 153.534 27.55 153.534 28.81C153.534 30.07 153.108 31.054 152.256 31.762C151.404 32.458 150.276 32.806 148.872 32.806H147.342V35.416L149.07 35.47V37H144.03ZM147.342 31.06H148.638C150.39 31.06 151.266 30.346 151.266 28.918C151.266 28.054 151.038 27.484 150.582 27.208C150.138 26.92 149.424 26.776 148.44 26.776H147.342V31.06ZM157.927 35.686C159.235 35.686 159.889 34.63 159.889 32.518C159.889 31.45 159.739 30.64 159.439 30.088C159.151 29.536 158.659 29.26 157.963 29.26C157.279 29.26 156.775 29.524 156.451 30.052C156.127 30.58 155.965 31.3 155.965 32.212C155.965 33.904 156.277 34.966 156.901 35.398C157.177 35.59 157.519 35.686 157.927 35.686ZM153.787 32.464C153.787 31.576 153.919 30.808 154.183 30.16C154.447 29.5 154.801 28.996 155.245 28.648C156.097 28 157.039 27.676 158.071 27.676C158.791 27.676 159.397 27.796 159.889 28.036C160.393 28.264 160.783 28.534 161.059 28.846C161.347 29.146 161.587 29.59 161.779 30.178C161.983 30.754 162.085 31.438 162.085 32.23C162.085 33.886 161.683 35.14 160.879 35.992C160.075 36.844 159.043 37.27 157.783 37.27C156.535 37.27 155.557 36.868 154.849 36.064C154.141 35.248 153.787 34.048 153.787 32.464ZM167.679 29.314C167.391 29.206 167.043 29.152 166.635 29.152C166.227 29.152 165.897 29.248 165.645 29.44C165.405 29.62 165.285 29.848 165.285 30.124C165.285 30.388 165.327 30.598 165.411 30.754C165.507 30.898 165.651 31.024 165.843 31.132C166.143 31.288 166.503 31.426 166.923 31.546C167.343 31.654 167.655 31.744 167.859 31.816C168.063 31.876 168.315 31.984 168.615 32.14C168.927 32.296 169.161 32.464 169.317 32.644C169.737 33.088 169.947 33.658 169.947 34.354C169.947 35.254 169.617 35.962 168.957 36.478C168.309 36.982 167.481 37.234 166.473 37.234C165.009 37.234 163.905 37.048 163.161 36.676V34.174L164.781 34.048V34.912C164.781 35.44 165.285 35.704 166.293 35.704C167.301 35.704 167.805 35.338 167.805 34.606C167.805 34.342 167.715 34.126 167.535 33.958C167.367 33.79 167.199 33.676 167.031 33.616C166.863 33.556 166.659 33.496 166.419 33.436C166.191 33.376 165.963 33.316 165.735 33.256C165.519 33.196 165.279 33.118 165.015 33.022C164.763 32.914 164.481 32.764 164.169 32.572C163.557 32.176 163.251 31.516 163.251 30.592C163.251 29.656 163.581 28.936 164.241 28.432C164.901 27.928 165.729 27.676 166.725 27.676C167.733 27.676 168.729 27.916 169.713 28.396V30.556L168.093 30.682V29.926C168.093 29.626 167.955 29.422 167.679 29.314ZM175.269 27.676C176.169 27.676 176.883 27.898 177.411 28.342C177.939 28.774 178.203 29.386 178.203 30.178C178.203 30.706 178.089 31.174 177.861 31.582C177.633 31.978 177.351 32.29 177.015 32.518C176.679 32.746 176.271 32.932 175.791 33.076C174.987 33.316 174.081 33.436 173.073 33.436C173.109 34.072 173.307 34.588 173.667 34.984C174.027 35.368 174.579 35.56 175.323 35.56C176.067 35.56 176.811 35.296 177.555 34.768L178.239 36.226C177.999 36.442 177.591 36.664 177.015 36.892C176.451 37.12 175.803 37.234 175.071 37.234C173.607 37.234 172.533 36.832 171.849 36.028C171.165 35.212 170.823 34.096 170.823 32.68C170.823 31.264 171.213 30.076 171.993 29.116C172.773 28.156 173.865 27.676 175.269 27.676ZM174.441 31.798C174.885 31.714 175.293 31.54 175.665 31.276C176.037 31 176.223 30.676 176.223 30.304C176.223 29.572 175.863 29.206 175.143 29.206C174.471 29.206 173.955 29.476 173.595 30.016C173.235 30.544 173.037 31.18 173.001 31.924C173.529 31.912 174.009 31.87 174.441 31.798Z" fill="white"/>
</svg>
