<svg width="20" height="20" viewBox="0 0 20 20" fill="none" xmlns="http://www.w3.org/2000/svg">
<path d="M17.0711 2.92891C15.1823 1.0402 12.6711 0 10 0C7.32891 0 4.8177 1.0402 2.92891 2.92891C1.0402 4.8177 0 7.32891 0 10C0 12.6711 1.0402 15.1823 2.92891 17.0711C4.8177 18.9598 7.32891 20 10 20C11.8286 20 13.6179 19.5016 15.1743 18.5589C15.5433 18.3353 15.6612 17.8549 15.4377 17.4859C15.2141 17.1168 14.7338 16.9989 14.3647 17.2224C13.0525 18.0173 11.5432 18.4375 10 18.4375C5.34754 18.4375 1.5625 14.6525 1.5625 10C1.5625 5.34754 5.34754 1.5625 10 1.5625C14.6525 1.5625 18.4375 5.34754 18.4375 10C18.4375 11.6636 17.9428 13.283 17.0068 14.683C16.767 15.0416 16.8633 15.5268 17.222 15.7666C17.5807 16.0064 18.0659 15.9101 18.3057 15.5514C19.4141 13.8935 20 11.9738 20 10C20 7.32891 18.9598 4.8177 17.0711 2.92891Z" fill="white"/>
<path d="M13.6655 9.59837L9.26793 5.20082C9.00359 4.93648 8.60194 4.93648 8.33252 5.20082C8.06818 5.46516 8.06818 5.86681 8.33252 6.13629L12.1962 10L8.33252 13.8638C8.06818 14.1281 8.06818 14.5297 8.33252 14.7992C8.46469 14.9313 8.59686 14.9974 8.80025 14.9974C8.93242 14.9974 9.13582 14.9313 9.33402 14.8653L13.6655 10.5338C13.7977 10.4016 13.8638 10.2694 13.8638 10.066C13.8638 9.86779 13.7977 9.73054 13.6655 9.59837Z" fill="white"/>
</svg>
