<svg width="277" height="60" viewBox="0 0 277 60" fill="none" xmlns="http://www.w3.org/2000/svg">
<rect width="277" height="60" rx="30" fill="#014C79"/>
<path d="M86.4568 35.38C87.8968 35.38 88.6168 34.804 88.6168 33.652C88.6168 33.052 88.2988 32.608 87.6628 32.32C87.3268 32.152 86.8888 31.996 86.3488 31.852C85.8208 31.708 85.3768 31.564 85.0168 31.42C84.6688 31.264 84.3148 31.054 83.9548 30.79C83.2468 30.262 82.8928 29.452 82.8928 28.36C82.8928 27.256 83.2708 26.392 84.0268 25.768C84.7948 25.132 85.7908 24.814 87.0148 24.814C88.2508 24.814 89.3968 25.06 90.4528 25.552V28.252L88.6168 28.378V27.334C88.6168 27.154 88.5928 27.022 88.5448 26.938C88.4128 26.71 87.9868 26.596 87.2668 26.596C86.5588 26.596 86.0308 26.722 85.6828 26.974C85.3468 27.226 85.1788 27.616 85.1788 28.144C85.1788 28.528 85.3228 28.864 85.6108 29.152C85.8028 29.344 86.0848 29.506 86.4568 29.638C86.8408 29.758 87.2428 29.884 87.6628 30.016C88.0948 30.148 88.4728 30.292 88.7968 30.448C89.1328 30.604 89.4808 30.82 89.8408 31.096C90.5728 31.636 90.9388 32.47 90.9388 33.598C90.9388 34.726 90.5308 35.614 89.7148 36.262C88.9108 36.91 87.8428 37.234 86.5108 37.234C85.1908 37.234 84.0028 36.988 82.9468 36.496V33.652L84.7828 33.526V34.624C84.7828 34.804 84.8068 34.936 84.8548 35.02C84.9028 35.104 85.0468 35.188 85.2868 35.272C85.5388 35.344 85.9288 35.38 86.4568 35.38ZM93.606 26.038H94.776V27.946H97.17L96.99 29.458H94.776V34.192C94.776 34.72 94.872 35.092 95.064 35.308C95.256 35.512 95.55 35.614 95.946 35.614C96.354 35.614 96.762 35.488 97.17 35.236L97.71 36.622C97.11 37.042 96.348 37.252 95.424 37.252C94.884 37.252 94.428 37.18 94.056 37.036C93.684 36.904 93.408 36.754 93.228 36.586C93.048 36.418 92.91 36.172 92.814 35.848C92.718 35.524 92.664 35.272 92.652 35.092C92.64 34.9 92.634 34.624 92.634 34.264V29.458H91.356L91.536 28.144C92.1 28.096 92.526 27.898 92.814 27.55C93.102 27.19 93.366 26.686 93.606 26.038ZM106.142 28.306V35.002C106.142 35.194 106.172 35.326 106.232 35.398C106.304 35.47 106.424 35.512 106.592 35.524L107.168 35.56V37H104.306V35.956L104.252 35.938C103.652 36.802 102.83 37.234 101.786 37.234C100.562 37.234 99.6558 36.844 99.0678 36.064C98.4798 35.284 98.1858 34.216 98.1858 32.86C98.1858 31.228 98.5818 29.956 99.3738 29.044C100.166 28.132 101.354 27.676 102.938 27.676C103.958 27.676 105.026 27.886 106.142 28.306ZM104.054 34.138V29.476C103.718 29.32 103.256 29.242 102.668 29.242C101.864 29.242 101.282 29.566 100.922 30.214C100.562 30.862 100.382 31.72 100.382 32.788C100.382 34.732 101.006 35.704 102.254 35.704C102.782 35.704 103.214 35.548 103.55 35.236C103.886 34.912 104.054 34.546 104.054 34.138ZM109.055 34.984V29.998C109.055 29.806 109.019 29.674 108.947 29.602C108.887 29.518 108.773 29.47 108.605 29.458L107.849 29.404V27.946H110.891V29.296C111.107 28.828 111.443 28.444 111.899 28.144C112.355 27.832 112.877 27.676 113.465 27.676C114.065 27.676 114.635 27.808 115.175 28.072V30.754L113.501 30.88V30.052C113.501 29.812 113.441 29.662 113.321 29.602C113.189 29.542 113.027 29.512 112.835 29.512C112.355 29.512 111.959 29.686 111.647 30.034C111.347 30.37 111.197 30.802 111.197 31.33V35.506L112.763 35.578V37H107.939V35.632L108.533 35.578C108.713 35.554 108.845 35.506 108.929 35.434C109.013 35.35 109.055 35.2 109.055 34.984ZM117.919 26.038H119.089V27.946H121.483L121.303 29.458H119.089V34.192C119.089 34.72 119.185 35.092 119.377 35.308C119.569 35.512 119.863 35.614 120.259 35.614C120.667 35.614 121.075 35.488 121.483 35.236L122.023 36.622C121.423 37.042 120.661 37.252 119.737 37.252C119.197 37.252 118.741 37.18 118.369 37.036C117.997 36.904 117.721 36.754 117.541 36.586C117.36 36.418 117.222 36.172 117.126 35.848C117.031 35.524 116.977 35.272 116.965 35.092C116.953 34.9 116.947 34.624 116.947 34.264V29.458H115.668L115.848 28.144C116.413 28.096 116.839 27.898 117.126 27.55C117.415 27.19 117.679 26.686 117.919 26.038ZM134.211 37H125.661V35.542L126.255 35.488C126.603 35.452 126.777 35.284 126.777 34.984V26.614L125.751 26.56V25.03H133.995V28.018L132.159 28.144V27.424C132.159 27.22 132.129 27.076 132.069 26.992C132.009 26.908 131.865 26.866 131.637 26.866H128.973V29.944H133.131V31.78H128.973V35.146H131.871C132.087 35.146 132.225 35.104 132.285 35.02C132.345 34.924 132.375 34.774 132.375 34.57V33.67L134.211 33.796V37ZM140.336 35.092L139.238 33.652L137.744 35.506L138.59 35.56V37H134.846V35.578L135.404 35.524C135.68 35.488 135.92 35.344 136.124 35.092L138.194 32.5L135.98 29.44L135.062 29.332V27.946H139.256V29.368L138.734 29.404C138.59 29.416 138.494 29.47 138.446 29.566C138.41 29.662 138.434 29.764 138.518 29.872L139.544 31.24L140.93 29.44L140.192 29.386V27.946H143.846V29.35L143.306 29.386C143.054 29.398 142.814 29.548 142.586 29.836L140.606 32.338L142.964 35.47L143.882 35.578V37H139.598V35.578L140.156 35.542C140.312 35.53 140.402 35.482 140.426 35.398C140.462 35.302 140.432 35.2 140.336 35.092ZM148.988 27.676C149.888 27.676 150.602 27.898 151.13 28.342C151.658 28.774 151.922 29.386 151.922 30.178C151.922 30.706 151.808 31.174 151.58 31.582C151.352 31.978 151.07 32.29 150.734 32.518C150.398 32.746 149.99 32.932 149.51 33.076C148.706 33.316 147.8 33.436 146.792 33.436C146.828 34.072 147.026 34.588 147.386 34.984C147.746 35.368 148.298 35.56 149.042 35.56C149.786 35.56 150.53 35.296 151.274 34.768L151.958 36.226C151.718 36.442 151.31 36.664 150.734 36.892C150.17 37.12 149.522 37.234 148.79 37.234C147.326 37.234 146.252 36.832 145.568 36.028C144.884 35.212 144.542 34.096 144.542 32.68C144.542 31.264 144.932 30.076 145.712 29.116C146.492 28.156 147.584 27.676 148.988 27.676ZM148.16 31.798C148.604 31.714 149.012 31.54 149.384 31.276C149.756 31 149.942 30.676 149.942 30.304C149.942 29.572 149.582 29.206 148.862 29.206C148.19 29.206 147.674 29.476 147.314 30.016C146.954 30.544 146.756 31.18 146.72 31.924C147.248 31.912 147.728 31.87 148.16 31.798ZM153.971 34.984V29.998C153.971 29.806 153.935 29.674 153.863 29.602C153.803 29.518 153.689 29.47 153.521 29.458L152.765 29.404V27.946H155.807V29.296C156.023 28.828 156.359 28.444 156.815 28.144C157.271 27.832 157.793 27.676 158.381 27.676C158.981 27.676 159.551 27.808 160.091 28.072V30.754L158.417 30.88V30.052C158.417 29.812 158.357 29.662 158.237 29.602C158.105 29.542 157.943 29.512 157.751 29.512C157.271 29.512 156.875 29.686 156.563 30.034C156.263 30.37 156.113 30.802 156.113 31.33V35.506L157.679 35.578V37H152.855V35.632L153.449 35.578C153.629 35.554 153.761 35.506 153.845 35.434C153.929 35.35 153.971 35.2 153.971 34.984ZM163.015 32.374C163.015 33.394 163.207 34.186 163.591 34.75C163.975 35.314 164.527 35.596 165.247 35.596C165.979 35.596 166.699 35.338 167.407 34.822L168.181 36.208C167.329 36.904 166.261 37.252 164.977 37.252C163.693 37.252 162.679 36.85 161.935 36.046C161.203 35.23 160.837 34.03 160.837 32.446C160.837 30.862 161.257 29.674 162.097 28.882C162.949 28.078 163.903 27.676 164.959 27.676C166.027 27.676 167.017 27.922 167.929 28.414V30.754L166.273 30.88V30.016C166.273 29.692 166.153 29.494 165.913 29.422C165.685 29.338 165.445 29.296 165.193 29.296C163.741 29.296 163.015 30.322 163.015 32.374ZM172.234 27.946V35.506L173.26 35.56V37H168.976V35.632L169.57 35.578C169.918 35.542 170.092 35.35 170.092 35.002V29.998C170.092 29.794 170.056 29.656 169.984 29.584C169.924 29.512 169.81 29.476 169.642 29.476L169.012 29.44V27.946H172.234ZM169.966 26.398C169.714 26.146 169.588 25.828 169.588 25.444C169.588 25.06 169.714 24.742 169.966 24.49C170.218 24.226 170.548 24.094 170.956 24.094C171.364 24.094 171.694 24.226 171.946 24.49C172.21 24.742 172.342 25.06 172.342 25.444C172.342 25.828 172.21 26.146 171.946 26.398C171.694 26.638 171.364 26.758 170.956 26.758C170.548 26.758 170.218 26.638 169.966 26.398ZM178.685 29.314C178.397 29.206 178.049 29.152 177.641 29.152C177.233 29.152 176.903 29.248 176.651 29.44C176.411 29.62 176.291 29.848 176.291 30.124C176.291 30.388 176.333 30.598 176.417 30.754C176.513 30.898 176.657 31.024 176.849 31.132C177.149 31.288 177.509 31.426 177.929 31.546C178.349 31.654 178.661 31.744 178.865 31.816C179.069 31.876 179.321 31.984 179.621 32.14C179.933 32.296 180.167 32.464 180.323 32.644C180.743 33.088 180.953 33.658 180.953 34.354C180.953 35.254 180.623 35.962 179.963 36.478C179.315 36.982 178.487 37.234 177.479 37.234C176.015 37.234 174.911 37.048 174.167 36.676V34.174L175.787 34.048V34.912C175.787 35.44 176.291 35.704 177.299 35.704C178.307 35.704 178.811 35.338 178.811 34.606C178.811 34.342 178.721 34.126 178.541 33.958C178.373 33.79 178.205 33.676 178.037 33.616C177.869 33.556 177.665 33.496 177.425 33.436C177.197 33.376 176.969 33.316 176.741 33.256C176.525 33.196 176.285 33.118 176.021 33.022C175.769 32.914 175.487 32.764 175.175 32.572C174.563 32.176 174.257 31.516 174.257 30.592C174.257 29.656 174.587 28.936 175.247 28.432C175.907 27.928 176.735 27.676 177.731 27.676C178.739 27.676 179.735 27.916 180.719 28.396V30.556L179.099 30.682V29.926C179.099 29.626 178.961 29.422 178.685 29.314ZM186.274 27.676C187.174 27.676 187.888 27.898 188.416 28.342C188.944 28.774 189.208 29.386 189.208 30.178C189.208 30.706 189.094 31.174 188.866 31.582C188.638 31.978 188.356 32.29 188.02 32.518C187.684 32.746 187.276 32.932 186.796 33.076C185.992 33.316 185.086 33.436 184.078 33.436C184.114 34.072 184.312 34.588 184.672 34.984C185.032 35.368 185.584 35.56 186.328 35.56C187.072 35.56 187.816 35.296 188.56 34.768L189.244 36.226C189.004 36.442 188.596 36.664 188.02 36.892C187.456 37.12 186.808 37.234 186.076 37.234C184.612 37.234 183.538 36.832 182.854 36.028C182.17 35.212 181.828 34.096 181.828 32.68C181.828 31.264 182.218 30.076 182.998 29.116C183.778 28.156 184.87 27.676 186.274 27.676ZM185.446 31.798C185.89 31.714 186.298 31.54 186.67 31.276C187.042 31 187.228 30.676 187.228 30.304C187.228 29.572 186.868 29.206 186.148 29.206C185.476 29.206 184.96 29.476 184.6 30.016C184.24 30.544 184.042 31.18 184.006 31.924C184.534 31.912 185.014 31.87 185.446 31.798Z" fill="white"/>
</svg>
