<svg width="277" height="60" viewBox="0 0 277 60" fill="none" xmlns="http://www.w3.org/2000/svg">
<rect width="277" height="60" rx="30" fill="#014C79"/>
<path d="M89.3496 32.806V36.064C88.2336 36.832 86.8476 37.216 85.1916 37.216C83.5356 37.216 82.2396 36.7 81.3036 35.668C80.3796 34.624 79.9176 33.082 79.9176 31.042C79.9176 30.142 80.0316 29.332 80.2596 28.612C80.4996 27.892 80.8056 27.298 81.1776 26.83C81.5616 26.362 82.0056 25.972 82.5096 25.66C83.4696 25.096 84.5556 24.814 85.7676 24.814C86.9916 24.814 88.1316 25.06 89.1876 25.552V28.612L87.3516 28.738V27.334C87.3516 27.154 87.3276 27.022 87.2796 26.938C87.1476 26.71 86.6016 26.596 85.6416 26.596C83.3256 26.596 82.1676 28.03 82.1676 30.898C82.1676 33.922 83.2116 35.434 85.2996 35.434C86.1276 35.434 86.7636 35.29 87.2076 35.002V32.32H87.1896L85.8036 32.266V30.736H90.2856V32.176L89.8716 32.212C89.6796 32.236 89.5416 32.29 89.4576 32.374C89.3856 32.446 89.3496 32.59 89.3496 32.806ZM99.5575 37H91.0075V35.542L91.6015 35.488C91.9495 35.452 92.1235 35.284 92.1235 34.984V26.614L91.0975 26.56V25.03H99.3415V28.018L97.5055 28.144V27.424C97.5055 27.22 97.4755 27.076 97.4155 26.992C97.3555 26.908 97.2115 26.866 96.9835 26.866H94.3195V29.944H98.4775V31.78H94.3195V35.146H97.2175C97.4335 35.146 97.5715 35.104 97.6315 35.02C97.6915 34.924 97.7215 34.774 97.7215 34.57V33.67L99.5575 33.796V37ZM103.865 34.984V26.812H102.461C102.185 26.812 102.047 26.998 102.047 27.37V28.216L100.211 28.09V25.03H109.625V28.09L107.789 28.216V27.37C107.789 27.166 107.759 27.022 107.699 26.938C107.639 26.854 107.495 26.812 107.267 26.812H106.043V35.416L107.465 35.47V37H102.389V35.542L103.343 35.488C103.691 35.452 103.865 35.284 103.865 34.984ZM117.165 35.38C118.605 35.38 119.325 34.804 119.325 33.652C119.325 33.052 119.007 32.608 118.371 32.32C118.035 32.152 117.597 31.996 117.057 31.852C116.529 31.708 116.085 31.564 115.725 31.42C115.377 31.264 115.023 31.054 114.663 30.79C113.955 30.262 113.601 29.452 113.601 28.36C113.601 27.256 113.979 26.392 114.735 25.768C115.503 25.132 116.499 24.814 117.723 24.814C118.959 24.814 120.105 25.06 121.161 25.552V28.252L119.325 28.378V27.334C119.325 27.154 119.301 27.022 119.253 26.938C119.121 26.71 118.695 26.596 117.975 26.596C117.267 26.596 116.739 26.722 116.391 26.974C116.055 27.226 115.887 27.616 115.887 28.144C115.887 28.528 116.031 28.864 116.319 29.152C116.511 29.344 116.793 29.506 117.165 29.638C117.549 29.758 117.951 29.884 118.371 30.016C118.803 30.148 119.181 30.292 119.505 30.448C119.841 30.604 120.189 30.82 120.549 31.096C121.281 31.636 121.647 32.47 121.647 33.598C121.647 34.726 121.239 35.614 120.423 36.262C119.619 36.91 118.551 37.234 117.219 37.234C115.899 37.234 114.711 36.988 113.655 36.496V33.652L115.491 33.526V34.624C115.491 34.804 115.515 34.936 115.563 35.02C115.611 35.104 115.755 35.188 115.995 35.272C116.247 35.344 116.637 35.38 117.165 35.38ZM129.746 26.938C129.614 26.71 129.122 26.596 128.27 26.596C127.154 26.596 126.308 26.974 125.732 27.73C125.156 28.486 124.868 29.578 124.868 31.006C124.868 33.97 125.978 35.452 128.198 35.452C128.234 35.452 128.39 35.452 128.666 35.452C128.954 35.452 129.224 35.416 129.476 35.344C129.728 35.26 129.878 35.176 129.926 35.092C129.974 35.008 129.998 34.876 129.998 34.696V33.256L131.834 33.382V36.496C130.898 36.988 129.71 37.234 128.27 37.234C126.434 37.234 125.03 36.718 124.058 35.686C123.098 34.654 122.618 33.118 122.618 31.078C122.618 29.95 122.78 28.966 123.104 28.126C123.428 27.286 123.866 26.632 124.418 26.164C125.498 25.264 126.782 24.814 128.27 24.814C129.47 24.814 130.598 25.06 131.654 25.552V28.612L129.818 28.738V27.334C129.818 27.154 129.794 27.022 129.746 26.938ZM141.375 34.894V31.78H136.281V35.416L137.325 35.47V37H132.969V35.542L133.563 35.488C133.911 35.452 134.085 35.284 134.085 34.984V26.614L133.059 26.56V25.03H137.415V26.488L136.821 26.542C136.629 26.566 136.491 26.62 136.407 26.704C136.323 26.776 136.281 26.92 136.281 27.136V29.926H141.375V26.614L140.349 26.56V25.03H144.705V26.488L144.111 26.542C143.763 26.578 143.589 26.77 143.589 27.118V35.416L144.615 35.47V37H140.259V35.542L140.853 35.488C141.033 35.464 141.165 35.416 141.249 35.344C141.333 35.26 141.375 35.11 141.375 34.894ZM154.036 37H145.486V35.542L146.08 35.488C146.428 35.452 146.602 35.284 146.602 34.984V26.614L145.576 26.56V25.03H153.82V28.018L151.984 28.144V27.424C151.984 27.22 151.954 27.076 151.894 26.992C151.834 26.908 151.69 26.866 151.462 26.866H148.798V29.944H152.956V31.78H148.798V35.146H151.696C151.912 35.146 152.05 35.104 152.11 35.02C152.17 34.924 152.2 34.774 152.2 34.57V33.67L154.036 33.796V37ZM155.032 37V35.542L155.626 35.488C155.974 35.452 156.148 35.284 156.148 34.984V26.614L155.122 26.56V25.03H160.054C161.818 25.03 163.192 25.498 164.176 26.434C165.172 27.37 165.67 28.756 165.67 30.592C165.67 31.732 165.52 32.728 165.22 33.58C164.92 34.42 164.512 35.08 163.996 35.56C162.964 36.52 161.68 37 160.144 37H155.032ZM158.344 26.776V35.272H160.18C161.212 35.272 162.016 34.9 162.592 34.156C163.168 33.412 163.456 32.332 163.456 30.916C163.456 28.156 162.286 26.776 159.946 26.776H158.344ZM169.675 27.136V33.112C169.675 33.952 169.873 34.546 170.269 34.894C170.677 35.23 171.253 35.398 171.997 35.398C172.753 35.398 173.335 35.212 173.743 34.84C174.163 34.468 174.373 33.922 174.373 33.202V26.614L173.329 26.56V25.03H177.595V26.488L177.001 26.542C176.653 26.578 176.479 26.758 176.479 27.082V33.508C176.479 34.672 176.071 35.584 175.255 36.244C174.439 36.904 173.311 37.234 171.871 37.234C170.431 37.234 169.339 36.916 168.595 36.28C167.863 35.632 167.497 34.612 167.497 33.22V26.614L166.453 26.56V25.03H170.809V26.488L170.215 26.542C170.023 26.566 169.885 26.62 169.801 26.704C169.717 26.776 169.675 26.92 169.675 27.136ZM186.715 37H178.165V35.542L178.759 35.488C179.107 35.452 179.281 35.284 179.281 34.984V26.614L178.255 26.56V25.03H182.593V26.488L181.999 26.542C181.651 26.578 181.477 26.77 181.477 27.118V35.146H184.465C184.633 35.146 184.741 35.104 184.789 35.02C184.849 34.924 184.879 34.774 184.879 34.57V33.31L186.715 33.436V37ZM196.086 37H187.536V35.542L188.13 35.488C188.478 35.452 188.652 35.284 188.652 34.984V26.614L187.626 26.56V25.03H195.87V28.018L194.034 28.144V27.424C194.034 27.22 194.004 27.076 193.944 26.992C193.884 26.908 193.74 26.866 193.512 26.866H190.848V29.944H195.006V31.78H190.848V35.146H193.746C193.962 35.146 194.1 35.104 194.16 35.02C194.22 34.924 194.25 34.774 194.25 34.57V33.67L196.086 33.796V37Z" fill="white"/>
</svg>
