<svg width="35" height="35" viewBox="0 0 35 35" fill="none" xmlns="http://www.w3.org/2000/svg">
<rect width="35" height="35" rx="7" fill="#B6E9C1"/>
<path d="M27.1361 8.52679C26.5871 8.07976 25.8745 7.90566 25.179 8.04968L16.0406 9.96926C14.9578 10.1934 14.1719 11.1587 14.1719 12.2644V21.0292C13.5278 20.5497 12.73 20.2656 11.8672 20.2656C9.73481 20.2656 8 22.0004 8 24.1328C8 26.2652 9.73481 28 11.8672 28C13.9917 28 15.7215 26.278 15.7343 24.1565C15.7344 24.153 15.7344 24.1494 15.7344 24.1458V15.3541L26.4375 13.0777V18.5292C25.7935 18.0497 24.9957 17.7656 24.1328 17.7656C22.0005 17.7656 20.2656 19.5005 20.2656 21.6328C20.2656 23.7652 22.0005 25.5 24.1328 25.5C24.551 25.5 24.9627 25.4335 25.3565 25.3022C25.7658 25.1657 25.987 24.7233 25.8505 24.314C25.7141 23.9046 25.2716 23.6835 24.8623 23.8199C24.6282 23.898 24.3828 23.9375 24.1328 23.9375C22.862 23.9375 21.8281 22.9037 21.8281 21.6328C21.8281 20.362 22.862 19.3281 24.1328 19.3281C25.4036 19.3281 26.4375 20.362 26.4375 21.6328V21.638C26.4375 22.0695 26.7873 22.4193 27.2188 22.4193C27.6502 22.4193 28 22.0695 28 21.638V10.3443C28 9.63629 27.6851 8.97383 27.1361 8.52679ZM11.8672 26.4375C10.5964 26.4375 9.5625 25.4037 9.5625 24.1328C9.5625 22.862 10.5964 21.8281 11.8672 21.8281C13.138 21.8281 14.1719 22.862 14.1719 24.1328C14.1719 25.4037 13.138 26.4375 11.8672 26.4375ZM26.4375 11.4802L15.7344 13.7566V12.2644C15.7344 11.8958 15.9964 11.5741 16.3595 11.4989L25.4979 9.57926C25.551 9.56828 25.6044 9.56285 25.6574 9.56285C25.8352 9.56285 26.0086 9.62367 26.1496 9.73844C26.3326 9.88746 26.4375 10.1083 26.4375 10.3443V11.4802Z" fill="white"/>
</svg>
