<svg width="321" height="68" viewBox="0 0 321 68" fill="none" xmlns="http://www.w3.org/2000/svg">
<g filter="url(#filter0_d)">
<rect x="4" width="313" height="60" rx="30" fill="#003659"/>
</g>
<path d="M100.78 37V35.542L101.374 35.488C101.722 35.452 101.896 35.284 101.896 34.984V26.614L100.87 26.56V25.03H106.018C107.362 25.03 108.406 25.348 109.15 25.984C109.906 26.608 110.284 27.55 110.284 28.81C110.284 30.07 109.858 31.054 109.006 31.762C108.154 32.458 107.026 32.806 105.622 32.806H104.092V35.416L105.82 35.47V37H100.78ZM104.092 31.06H105.388C107.14 31.06 108.016 30.346 108.016 28.918C108.016 28.054 107.788 27.484 107.332 27.208C106.888 26.92 106.174 26.776 105.19 26.776H104.092V31.06ZM112.198 34.984V29.998C112.198 29.806 112.162 29.674 112.09 29.602C112.03 29.518 111.916 29.47 111.748 29.458L110.992 29.404V27.946H114.034V29.296C114.25 28.828 114.586 28.444 115.042 28.144C115.498 27.832 116.02 27.676 116.608 27.676C117.208 27.676 117.778 27.808 118.318 28.072V30.754L116.644 30.88V30.052C116.644 29.812 116.584 29.662 116.464 29.602C116.332 29.542 116.17 29.512 115.978 29.512C115.498 29.512 115.102 29.686 114.79 30.034C114.49 30.37 114.34 30.802 114.34 31.33V35.506L115.906 35.578V37H111.082V35.632L111.676 35.578C111.856 35.554 111.988 35.506 112.072 35.434C112.156 35.35 112.198 35.2 112.198 34.984ZM122.851 35.686C124.159 35.686 124.813 34.63 124.813 32.518C124.813 31.45 124.663 30.64 124.363 30.088C124.075 29.536 123.583 29.26 122.887 29.26C122.203 29.26 121.699 29.524 121.375 30.052C121.051 30.58 120.889 31.3 120.889 32.212C120.889 33.904 121.201 34.966 121.825 35.398C122.101 35.59 122.443 35.686 122.851 35.686ZM118.711 32.464C118.711 31.576 118.843 30.808 119.107 30.16C119.371 29.5 119.725 28.996 120.169 28.648C121.021 28 121.963 27.676 122.995 27.676C123.715 27.676 124.321 27.796 124.813 28.036C125.317 28.264 125.707 28.534 125.983 28.846C126.271 29.146 126.511 29.59 126.703 30.178C126.907 30.754 127.009 31.438 127.009 32.23C127.009 33.886 126.607 35.14 125.803 35.992C124.999 36.844 123.967 37.27 122.707 37.27C121.459 37.27 120.481 36.868 119.773 36.064C119.065 35.248 118.711 34.048 118.711 32.464ZM128.328 36.46V26.128C128.328 25.852 128.178 25.708 127.878 25.696L127.248 25.66V24.166H130.416V28.432C130.956 27.928 131.682 27.676 132.594 27.676C133.722 27.676 134.616 28.06 135.276 28.828C135.936 29.584 136.266 30.652 136.266 32.032C136.266 35.5 134.814 37.234 131.91 37.234C131.286 37.234 130.626 37.156 129.93 37C129.246 36.856 128.712 36.676 128.328 36.46ZM130.416 30.628V35.29C130.872 35.53 131.4 35.65 132 35.65C133.368 35.65 134.052 34.54 134.052 32.32C134.052 30.292 133.38 29.278 132.036 29.278C131.604 29.278 131.226 29.404 130.902 29.656C130.578 29.908 130.416 30.232 130.416 30.628ZM140.427 24.166V35.506L141.453 35.56V37H137.169V35.632L137.763 35.578C138.111 35.542 138.285 35.35 138.285 35.002V26.128C138.285 25.864 138.135 25.72 137.835 25.696L137.205 25.66V24.166H140.427ZM146.751 27.676C147.651 27.676 148.365 27.898 148.893 28.342C149.421 28.774 149.685 29.386 149.685 30.178C149.685 30.706 149.571 31.174 149.343 31.582C149.115 31.978 148.833 32.29 148.497 32.518C148.161 32.746 147.753 32.932 147.273 33.076C146.469 33.316 145.563 33.436 144.555 33.436C144.591 34.072 144.789 34.588 145.149 34.984C145.509 35.368 146.061 35.56 146.805 35.56C147.549 35.56 148.293 35.296 149.037 34.768L149.721 36.226C149.481 36.442 149.073 36.664 148.497 36.892C147.933 37.12 147.285 37.234 146.553 37.234C145.089 37.234 144.015 36.832 143.331 36.028C142.647 35.212 142.305 34.096 142.305 32.68C142.305 31.264 142.695 30.076 143.475 29.116C144.255 28.156 145.347 27.676 146.751 27.676ZM145.923 31.798C146.367 31.714 146.775 31.54 147.147 31.276C147.519 31 147.705 30.676 147.705 30.304C147.705 29.572 147.345 29.206 146.625 29.206C145.953 29.206 145.437 29.476 145.077 30.016C144.717 30.544 144.519 31.18 144.483 31.924C145.011 31.912 145.491 31.87 145.923 31.798ZM150.51 29.404V27.946H153.552V29.116C154.224 28.156 155.142 27.676 156.306 27.676C157.482 27.676 158.274 28.156 158.682 29.116C159.354 28.156 160.266 27.676 161.418 27.676C162.282 27.676 162.948 27.94 163.416 28.468C163.884 28.984 164.118 29.764 164.118 30.808V35.506L165.144 35.56V37H160.86V35.632L161.454 35.578C161.634 35.554 161.76 35.506 161.832 35.434C161.916 35.35 161.964 35.206 161.976 35.002V31.276C161.976 30.616 161.898 30.13 161.742 29.818C161.598 29.494 161.25 29.332 160.698 29.332C160.146 29.332 159.72 29.5 159.42 29.836C159.132 30.172 158.988 30.622 158.988 31.186V35.506L159.978 35.56V37H155.73V35.632L156.324 35.578C156.504 35.554 156.636 35.506 156.72 35.434C156.804 35.35 156.846 35.2 156.846 34.984V31.276C156.846 30.616 156.768 30.13 156.612 29.818C156.468 29.494 156.114 29.332 155.55 29.332C154.998 29.332 154.578 29.506 154.29 29.854C154.002 30.202 153.858 30.634 153.858 31.15V35.506L154.83 35.56V37H150.582V35.632L151.176 35.578C151.356 35.554 151.488 35.506 151.572 35.434C151.656 35.35 151.698 35.2 151.698 34.984H151.716V30.016C151.716 29.812 151.68 29.674 151.608 29.602C151.548 29.518 151.434 29.47 151.266 29.458L150.51 29.404ZM172.891 35.38C174.331 35.38 175.051 34.804 175.051 33.652C175.051 33.052 174.733 32.608 174.097 32.32C173.761 32.152 173.323 31.996 172.783 31.852C172.255 31.708 171.811 31.564 171.451 31.42C171.103 31.264 170.749 31.054 170.389 30.79C169.681 30.262 169.327 29.452 169.327 28.36C169.327 27.256 169.705 26.392 170.461 25.768C171.229 25.132 172.225 24.814 173.449 24.814C174.685 24.814 175.831 25.06 176.887 25.552V28.252L175.051 28.378V27.334C175.051 27.154 175.027 27.022 174.979 26.938C174.847 26.71 174.421 26.596 173.701 26.596C172.993 26.596 172.465 26.722 172.117 26.974C171.781 27.226 171.613 27.616 171.613 28.144C171.613 28.528 171.757 28.864 172.045 29.152C172.237 29.344 172.519 29.506 172.891 29.638C173.275 29.758 173.677 29.884 174.097 30.016C174.529 30.148 174.907 30.292 175.231 30.448C175.567 30.604 175.915 30.82 176.275 31.096C177.007 31.636 177.373 32.47 177.373 33.598C177.373 34.726 176.965 35.614 176.149 36.262C175.345 36.91 174.277 37.234 172.945 37.234C171.625 37.234 170.437 36.988 169.381 36.496V33.652L171.217 33.526V34.624C171.217 34.804 171.241 34.936 171.289 35.02C171.337 35.104 171.481 35.188 171.721 35.272C171.973 35.344 172.363 35.38 172.891 35.38ZM182.358 35.686C183.666 35.686 184.32 34.63 184.32 32.518C184.32 31.45 184.17 30.64 183.87 30.088C183.582 29.536 183.09 29.26 182.394 29.26C181.71 29.26 181.206 29.524 180.882 30.052C180.558 30.58 180.396 31.3 180.396 32.212C180.396 33.904 180.708 34.966 181.332 35.398C181.608 35.59 181.95 35.686 182.358 35.686ZM178.218 32.464C178.218 31.576 178.35 30.808 178.614 30.16C178.878 29.5 179.232 28.996 179.676 28.648C180.528 28 181.47 27.676 182.502 27.676C183.222 27.676 183.828 27.796 184.32 28.036C184.824 28.264 185.214 28.534 185.49 28.846C185.778 29.146 186.018 29.59 186.21 30.178C186.414 30.754 186.516 31.438 186.516 32.23C186.516 33.886 186.114 35.14 185.31 35.992C184.506 36.844 183.474 37.27 182.214 37.27C180.966 37.27 179.988 36.868 179.28 36.064C178.572 35.248 178.218 34.048 178.218 32.464ZM190.616 24.166V35.506L191.642 35.56V37H187.358V35.632L187.952 35.578C188.3 35.542 188.474 35.35 188.474 35.002V26.128C188.474 25.864 188.324 25.72 188.024 25.696L187.394 25.66V24.166H190.616ZM197.543 27.946H201.341V29.35L200.783 29.386C200.543 29.41 200.381 29.554 200.297 29.818L197.975 37H195.221L192.701 29.836C192.641 29.668 192.575 29.554 192.503 29.494C192.443 29.434 192.335 29.398 192.179 29.386L191.657 29.35V27.946H195.887V29.386L194.789 29.44L196.643 35.362H196.679L198.479 29.44L197.543 29.386V27.946ZM206.292 27.676C207.192 27.676 207.906 27.898 208.434 28.342C208.962 28.774 209.226 29.386 209.226 30.178C209.226 30.706 209.112 31.174 208.884 31.582C208.656 31.978 208.374 32.29 208.038 32.518C207.702 32.746 207.294 32.932 206.814 33.076C206.01 33.316 205.104 33.436 204.096 33.436C204.132 34.072 204.33 34.588 204.69 34.984C205.05 35.368 205.602 35.56 206.346 35.56C207.09 35.56 207.834 35.296 208.578 34.768L209.262 36.226C209.022 36.442 208.614 36.664 208.038 36.892C207.474 37.12 206.826 37.234 206.094 37.234C204.63 37.234 203.556 36.832 202.872 36.028C202.188 35.212 201.846 34.096 201.846 32.68C201.846 31.264 202.236 30.076 203.016 29.116C203.796 28.156 204.888 27.676 206.292 27.676ZM205.464 31.798C205.908 31.714 206.316 31.54 206.688 31.276C207.06 31 207.246 30.676 207.246 30.304C207.246 29.572 206.886 29.206 206.166 29.206C205.494 29.206 204.978 29.476 204.618 30.016C204.258 30.544 204.06 31.18 204.024 31.924C204.552 31.912 205.032 31.87 205.464 31.798ZM214.678 27.676C215.194 27.676 215.686 27.748 216.154 27.892V26.074C216.154 25.81 215.998 25.666 215.686 25.642L214.912 25.588V24.166H218.26V35.11C218.272 35.386 218.422 35.524 218.71 35.524L219.34 35.56V37H216.424V35.938L216.37 35.92C215.83 36.796 215.014 37.234 213.922 37.234C212.554 37.234 211.594 36.778 211.042 35.866C210.538 35.038 210.286 34.024 210.286 32.824C210.286 31.264 210.67 30.016 211.438 29.08C212.218 28.144 213.298 27.676 214.678 27.676ZM216.154 34.192V29.53C215.722 29.338 215.266 29.242 214.786 29.242C213.994 29.242 213.412 29.56 213.04 30.196C212.68 30.832 212.5 31.642 212.5 32.626C212.5 34.642 213.148 35.65 214.444 35.65C214.936 35.65 215.344 35.512 215.668 35.236C215.992 34.948 216.154 34.6 216.154 34.192Z" fill="white"/>
<defs>
<filter id="filter0_d" x="0" y="0" width="321" height="68" filterUnits="userSpaceOnUse" color-interpolation-filters="sRGB">
<feFlood flood-opacity="0" result="BackgroundImageFix"/>
<feColorMatrix in="SourceAlpha" type="matrix" values="0 0 0 0 0 0 0 0 0 0 0 0 0 0 0 0 0 0 127 0"/>
<feOffset dy="4"/>
<feGaussianBlur stdDeviation="2"/>
<feColorMatrix type="matrix" values="0 0 0 0 0 0 0 0 0 0 0 0 0 0 0 0 0 0 0.25 0"/>
<feBlend mode="normal" in2="BackgroundImageFix" result="effect1_dropShadow"/>
<feBlend mode="normal" in="SourceGraphic" in2="effect1_dropShadow" result="shape"/>
</filter>
</defs>
</svg>
