<svg width="38" height="38" viewBox="0 0 38 38" fill="none" xmlns="http://www.w3.org/2000/svg">
<g clip-path="url(#clip0)">
<path d="M9.50199 14.9248H1.3597C0.612262 14.9248 0 15.5291 0 16.2845V36.6402C0 37.3876 0.604311 37.9999 1.3597 37.9999H9.50199C10.2494 37.9999 10.8617 37.3956 10.8617 36.6402V16.2845C10.8537 15.5371 10.2494 14.9248 9.50199 14.9248ZM8.14229 35.2805H2.71145V17.6442H8.14229V35.2805Z" fill="#003659"/>
<path d="M23.0672 0H14.9249C14.1774 0 13.5652 0.604311 13.5652 1.3597V36.6403C13.5652 37.3877 14.1695 38 14.9249 38H23.0672C23.8146 38 24.4269 37.3957 24.4269 36.6403V1.3597C24.4269 0.604311 23.8226 0 23.0672 0ZM21.7154 35.2806H16.2846V2.71145H21.7154V35.2806Z" fill="#003659"/>
<path d="M36.68 26.1604C36.68 21.4849 36.68 16.8095 36.68 12.134C33.9526 12.134 31.2253 12.134 28.4979 12.134C28.4979 20.3002 28.4979 28.4584 28.4979 36.6245C31.2094 36.6245 33.9288 36.6245 36.6402 36.6245C36.6402 35.0263 36.6402 33.428 36.6402 31.8298" stroke="#003659" stroke-width="3" stroke-miterlimit="10" stroke-linecap="round" stroke-linejoin="round"/>
</g>
<defs>
<clipPath id="clip0">
<rect width="38" height="38" fill="white"/>
</clipPath>
</defs>
</svg>
