<svg width="88" height="35" viewBox="0 0 88 35" fill="none" xmlns="http://www.w3.org/2000/svg">
<rect width="35" height="35" rx="7" fill="#88A2FF"/>
<path d="M17.9609 23.6641C17.5294 23.6641 17.1797 23.3143 17.1797 22.8828C17.1797 22.4513 17.5294 22.1016 17.9609 22.1016C18.3925 22.1016 18.7422 22.4513 18.7422 22.8828C18.7422 23.3143 18.3925 23.6641 17.9609 23.6641ZM18.7422 20.1484V19.0994C20.2528 18.7339 21.2994 17.3634 21.2397 15.8136C21.1749 14.1259 19.7903 12.7537 18.0876 12.6899C17.1779 12.6555 16.3188 12.9814 15.6694 13.6068C15.0311 14.2216 14.6797 15.0465 14.6797 15.9297C14.6797 16.3612 15.0294 16.7109 15.4609 16.7109C15.8925 16.7109 16.2422 16.3612 16.2422 15.9297C16.2422 15.475 16.4236 15.0497 16.7532 14.7323C17.0941 14.4041 17.5468 14.2334 18.029 14.2512C18.9203 14.2848 19.6447 14.9974 19.6785 15.8737C19.7097 16.6903 19.1461 17.4119 18.3378 17.5892C17.6559 17.7389 17.1797 18.3282 17.1797 19.0225V20.1484C17.1797 20.58 17.5294 20.9297 17.9609 20.9297C18.3925 20.9297 18.7422 20.58 18.7422 20.1484ZM23.1743 26.5588C23.5434 26.3353 23.6613 25.8549 23.4378 25.486C23.2141 25.1169 22.7337 24.9989 22.3648 25.2224C21.0525 26.0173 19.5431 26.4375 18 26.4375C13.3476 26.4375 9.5625 22.6524 9.5625 18C9.5625 13.3476 13.3476 9.5625 18 9.5625C22.6524 9.5625 26.4375 13.3476 26.4375 18C26.4375 19.6637 25.9428 21.2829 25.0068 22.6831C24.767 23.0417 24.8634 23.5269 25.222 23.7668C25.5807 24.0066 26.0659 23.9102 26.3057 23.5515C27.4142 21.8936 28 19.9739 28 18C28 15.3289 26.9598 12.8177 25.0711 10.9289C23.1823 9.04019 20.6711 8 18 8C15.3289 8 12.8177 9.04019 10.9289 10.9289C9.04019 12.8177 8 15.3289 8 18C8 20.6711 9.04019 23.1823 10.9289 25.0711C12.8177 26.9598 15.3289 28 18 28C19.8286 28 21.6179 27.5016 23.1743 26.5588Z" fill="white"/>
<path d="M53.7 24.28C53.66 24.48 53.54 24.6533 53.34 24.8C53.1533 24.9333 52.8867 25 52.54 25C52.2467 25 52.0133 24.92 51.84 24.76C51.68 24.6 51.5933 24.4333 51.58 24.26C51.66 23.7 51.7 22.86 51.7 21.74C51.7 21.0733 51.66 20.0467 51.58 18.66C51.4867 17.3533 51.44 16.1933 51.44 15.18C51.44 14.6333 51.4667 14.0733 51.52 13.5C51.52 13.3133 51.6267 13.1133 51.84 12.9C52.0667 12.6867 52.3733 12.5533 52.76 12.5C54.0267 12.3667 55.58 12.3 57.42 12.3H58.06C58.54 12.3 59.0067 12.3867 59.46 12.56C59.9267 12.7333 60.16 13.0333 60.16 13.46C60.16 13.74 60.0933 13.96 59.96 14.12C59.8267 14.28 59.58 14.36 59.22 14.36C59.0467 14.36 58.8467 14.3467 58.62 14.32C58.3933 14.2933 58.2333 14.2733 58.14 14.26C57.6333 14.18 57.24 14.14 56.96 14.14C55.4133 14.14 54.2467 14.2467 53.46 14.46C53.46 14.9 53.4733 15.6133 53.5 16.6L53.52 17.88C54.2133 17.88 54.8333 17.8533 55.38 17.8C55.9267 17.7333 56.24 17.6933 56.32 17.68C57.0133 17.6 57.4733 17.56 57.7 17.56C58.02 17.56 58.2867 17.6333 58.5 17.78C58.7267 17.9133 58.84 18.1267 58.84 18.42C58.84 19.0867 58.3733 19.42 57.44 19.42C57.2133 19.42 57.0133 19.4267 56.84 19.44C56.6667 19.4533 56.52 19.4667 56.4 19.48C55.92 19.5333 55.54 19.56 55.26 19.56C54.6467 19.56 54.1267 19.58 53.7 19.62C53.7 20.1133 53.72 20.6333 53.76 21.18C53.76 21.3533 53.7667 21.62 53.78 21.98C53.8067 22.34 53.82 22.6667 53.82 22.96C53.82 23.2133 53.8133 23.4467 53.8 23.66C53.7867 23.8733 53.7533 24.08 53.7 24.28ZM70.9339 26.16C70.5472 25.8133 70.0739 25.3267 69.5139 24.7C68.8872 24.94 68.3206 25.06 67.8139 25.06C66.9339 25.06 66.1206 24.9533 65.3739 24.74C64.6406 24.5133 64.0406 24.1867 63.5739 23.76C62.7206 23 62.1206 22.1667 61.7739 21.26C61.4272 20.3533 61.2539 19.2 61.2539 17.8C61.2539 17.5067 61.3006 17.2333 61.3939 16.98C61.4872 16.7267 61.6206 16.4333 61.7939 16.1C61.8206 16.0333 61.8872 15.8933 61.9939 15.68C62.1006 15.4533 62.1672 15.2467 62.1939 15.06C62.4606 14.5933 62.8872 14.1467 63.4739 13.72C64.0739 13.28 64.7206 12.9333 65.4139 12.68C66.1072 12.4133 66.7206 12.28 67.2539 12.28C69.8406 12.28 71.6806 13.1667 72.7739 14.94C73.4139 15.9533 73.7339 16.9933 73.7339 18.06C73.7339 19.3667 73.5072 20.52 73.0539 21.52C72.6006 22.5067 71.9672 23.28 71.1539 23.84C71.6606 24.3733 72.0472 24.7467 72.3139 24.96C72.4072 25.04 72.5072 25.1133 72.6139 25.18C72.7339 25.2467 72.8139 25.2933 72.8539 25.32C73.0139 25.4267 73.1272 25.5133 73.1939 25.58C73.2739 25.6467 73.3206 25.7267 73.3339 25.82C73.3472 26.0867 73.2872 26.3267 73.1539 26.54C73.0206 26.7533 72.7472 26.86 72.3339 26.86C71.9872 26.86 71.7206 26.8067 71.5339 26.7C71.3606 26.6067 71.2272 26.5 71.1339 26.38C71.0406 26.2733 70.9739 26.2 70.9339 26.16ZM65.3739 22.7C65.8939 22.9 66.2606 23.0333 66.4739 23.1C66.7006 23.1533 66.9406 23.18 67.1939 23.18C67.5139 23.18 67.8139 23.16 68.0939 23.12C67.8272 22.8 67.4872 22.4333 67.0739 22.02C66.7939 21.74 66.6539 21.4533 66.6539 21.16C66.6539 20.9867 66.7272 20.82 66.8739 20.66C67.0206 20.5 67.2072 20.4133 67.4339 20.4C67.6739 20.3867 67.8806 20.4333 68.0539 20.54C68.2272 20.6333 68.4272 20.8 68.6539 21.04L69.8739 22.4C70.4339 22.0267 70.8739 21.5467 71.1939 20.96C71.5139 20.36 71.6739 19.7133 71.6739 19.02C71.6739 18.0067 71.5539 17.2067 71.3139 16.62C71.0739 16.0333 70.6539 15.5 70.0539 15.02C69.7472 14.7667 69.3539 14.58 68.8739 14.46C68.4072 14.34 67.9006 14.28 67.3539 14.28C66.5539 14.28 65.8472 14.48 65.2339 14.88C64.6206 15.2667 64.1472 15.8133 63.8139 16.52C63.4939 17.2267 63.3339 18.0333 63.3339 18.94C63.3206 19.7133 63.4939 20.4 63.8539 21C64.2139 21.6 64.7206 22.1667 65.3739 22.7ZM85.2866 24.7C85.1132 24.4733 84.9666 24.2267 84.8466 23.96C84.7266 23.68 84.5999 23.3467 84.4666 22.96C84.4399 22.8933 84.3599 22.6933 84.2266 22.36C84.1066 22.0267 83.9666 21.74 83.8066 21.5C82.9666 21.62 82.2799 21.68 81.7466 21.68C81.4532 21.68 81.1266 21.6733 80.7666 21.66C80.4199 21.6333 80.1599 21.62 79.9866 21.62C79.3199 21.5667 78.7866 21.54 78.3866 21.54C78.2266 21.7533 78.0866 21.98 77.9666 22.22C77.8599 22.46 77.7199 22.82 77.5466 23.3C77.3066 23.9933 77.0999 24.4867 76.9266 24.78C76.8066 24.98 76.5732 25.08 76.2266 25.08C75.9332 25.08 75.6599 25.02 75.4066 24.9C75.1666 24.7667 75.0466 24.5867 75.0466 24.36C75.1532 23.8533 75.3199 23.32 75.5466 22.76C75.7866 22.1867 76.1266 21.4267 76.5666 20.48L77.3666 18.52C77.8066 17.4 78.2066 16.44 78.5666 15.64C78.9399 14.84 79.4266 13.8933 80.0266 12.8C80.1066 12.64 80.2399 12.5067 80.4266 12.4C80.6132 12.28 80.8199 12.22 81.0466 12.22C81.2999 12.22 81.4799 12.24 81.5866 12.28C81.7066 12.3067 81.7999 12.36 81.8666 12.44C81.9332 12.5067 82.0332 12.6533 82.1666 12.88C82.6199 13.5867 83.0066 14.3133 83.3266 15.06C83.6599 15.8067 84.0799 16.84 84.5866 18.16L85.0066 19.22C85.3799 20.18 85.6999 20.9867 85.9666 21.64C86.2466 22.28 86.5532 22.8667 86.8866 23.4C87.0999 23.7467 87.2066 23.9867 87.2066 24.12C87.2066 24.44 87.1066 24.6867 86.9066 24.86C86.7199 25.02 86.4732 25.1 86.1666 25.1C85.7799 25.1 85.4866 24.9667 85.2866 24.7ZM83.2266 19.86C83.0132 19.4067 82.7066 18.62 82.3066 17.5C81.8932 16.3 81.4799 15.3467 81.0666 14.64C80.8132 15.28 80.4399 16.1067 79.9466 17.12C79.6132 17.7467 79.2332 18.6533 78.8066 19.84C79.6599 19.9467 80.5799 20 81.5666 20C82.2732 20 82.8266 19.9533 83.2266 19.86Z" fill="black"/>
</svg>
