<svg width="25" height="25" viewBox="0 0 25 25" fill="none" xmlns="http://www.w3.org/2000/svg">
<circle cx="12.5" cy="12.5" r="12.5" fill="#014C79"/>
<path d="M5.88 12.192C5.88 11.3813 6.03467 10.6187 6.344 9.904C6.65333 9.17867 7.08 8.544 7.624 8C8.168 7.44533 8.79733 7.01333 9.512 6.704C10.2373 6.384 11.0107 6.224 11.832 6.224C12.6427 6.224 13.4053 6.384 14.12 6.704C14.8453 7.01333 15.48 7.44533 16.024 8C16.5787 8.544 17.0107 9.17867 17.32 9.904C17.64 10.6187 17.8 11.3813 17.8 12.192C17.8 12.96 17.656 13.6853 17.368 14.368C17.0907 15.0507 16.712 15.6533 16.232 16.176H18.344V18H13.048C12.6427 18.0853 12.2373 18.128 11.832 18.128C11.0107 18.128 10.2373 17.9787 9.512 17.68C8.79733 17.3707 8.168 16.944 7.624 16.4C7.08 15.856 6.65333 15.2267 6.344 14.512C6.03467 13.7973 5.88 13.024 5.88 12.192ZM7.8 12.192C7.8 12.9493 7.98133 13.6427 8.344 14.272C8.70667 14.8907 9.192 15.3867 9.8 15.76C10.4187 16.1333 11.112 16.32 11.88 16.32C12.6267 16.32 13.2987 16.1387 13.896 15.776C14.504 15.4027 14.984 14.9067 15.336 14.288C15.6987 13.6587 15.88 12.96 15.88 12.192C15.88 11.4347 15.6987 10.7467 15.336 10.128C14.9733 9.49867 14.488 8.99733 13.88 8.624C13.272 8.25067 12.5893 8.064 11.832 8.064C11.0747 8.064 10.392 8.25067 9.784 8.624C9.176 8.99733 8.69067 9.49867 8.328 10.128C7.976 10.7573 7.8 11.4453 7.8 12.192Z" fill="white"/>
</svg>
