<svg width="25" height="25" viewBox="0 0 25 25" fill="none" xmlns="http://www.w3.org/2000/svg">
<path d="M11.5236 10.9881L22.5052 2.26611C23.038 1.99772 23.6739 2.02681 24.1816 2.33486C24.6919 2.64159 25 3.18895 25 3.77597V21.2253C25 21.811 24.6919 22.3571 24.1816 22.6651C23.9066 22.8317 23.5946 22.9163 23.2786 22.9163C23.0129 22.9163 22.7484 22.8555 22.5038 22.7339L11.5223 14.0092C10.9934 13.5121 10.5757 13.1392 10.5757 12.498C10.5757 11.8568 10.9313 11.5117 11.5236 10.9881Z" fill="black"/>
<path d="M0.946609 10.9881L11.9282 2.26611C12.461 1.99772 13.0982 2.02681 13.6059 2.33486C14.1163 2.64159 14.4243 3.18895 14.4243 3.77597V21.2253C14.4243 21.811 14.1163 22.3571 13.6059 22.6651C13.3309 22.8317 13.0189 22.9163 12.7029 22.9163C12.4372 22.9163 12.1727 22.8555 11.9282 22.7339L0.946609 14.0092C0.41776 13.5121 -3.05176e-05 13.1392 -3.05176e-05 12.498C-3.05176e-05 11.8568 0.354298 11.5117 0.946609 10.9881Z" fill="black"/>
</svg>
