<svg width="95" height="33" viewBox="0 0 95 33" fill="none" xmlns="http://www.w3.org/2000/svg">
<path d="M5.87 22.68C5.87 23.86 4.72 24.45 2.42 24.45C1.92 24.45 1.62 24.2 1.52 23.7C1.44 23.18 1.4 22.46 1.4 21.54C1.4 19.6 1.79 17.2 2.57 14.34C3.87 9.62 5.26 6.84 6.74 6C6.94 5.88 7.16 5.82 7.4 5.82C7.64 5.82 7.76 6.21 7.76 6.99C7.76 7.77 7.72 8.46 7.64 9.06C7.48 10.26 7.19 11.81 6.77 13.71C6.37 15.61 6.17 16.73 6.17 17.07L5.87 22.68ZM7.91 14.61C7.91 14.35 8.05 14.18 8.33 14.1C8.63 14.02 9 13.95 9.44 13.89C9.88 13.81 10.36 13.7 10.88 13.56C11.4 13.42 11.88 13.16 12.32 12.78C13.34 11.9 13.85 10.43 13.85 8.37C13.85 7.05 13.4 6.04 12.5 5.34C11.62 4.64 10.34 4.29 8.66 4.29C7 4.29 5.44 4.64 3.98 5.34C3.44 5.6 2.95 5.84 2.51 6.06C2.09 6.28 1.7 6.39 1.34 6.39C0.98 6.39 0.8 6.28 0.8 6.06C0.8 5.72 1.13 5.16 1.79 4.38C2.45 3.66 3.49 2.99 4.91 2.37C6.35 1.75 7.86 1.44 9.44 1.44C12.42 1.42 14.74 2.12 16.4 3.54C17.84 4.78 18.56 6.39 18.56 8.37C18.56 10.33 17.85 12.09 16.43 13.65C15.01 15.19 13.23 15.96 11.09 15.96C8.97 15.96 7.91 15.51 7.91 14.61ZM22.6491 18.96L22.8291 22.62C22.8291 23.1 22.5791 23.53 22.0791 23.91C21.5791 24.29 20.8991 24.48 20.0391 24.48C19.5391 24.48 19.1891 24.22 18.9891 23.7C18.8091 23.18 18.7191 22.42 18.7191 21.42C18.7191 19.32 18.8191 17.68 19.0191 16.5C19.2391 15.3 19.6591 14.09 20.2791 12.87C19.3591 11.99 18.8991 11.23 18.8991 10.59C18.8991 9.25 19.6191 8.58 21.0591 8.58C21.7991 8.58 22.4491 8.97 23.0091 9.75C23.4091 10.29 23.6991 10.92 23.8791 11.64C24.1591 11.74 24.5091 11.79 24.9291 11.79C25.5091 11.79 26.1791 11.6 26.9391 11.22L27.7191 10.83C27.9591 10.71 28.1691 10.65 28.3491 10.65C28.9291 10.65 29.5091 11.5 30.0891 13.2C29.9091 13.98 29.7091 14.73 29.4891 15.45C29.2891 16.17 29.0491 17.04 28.7691 18.06C28.4891 19.08 28.3391 19.77 28.3191 20.13C28.3191 20.47 28.4291 20.64 28.6491 20.64C28.9491 20.64 29.3191 20.45 29.7591 20.07C30.1991 19.69 30.6391 19.28 31.0791 18.84C31.5191 18.38 31.9191 17.96 32.2791 17.58C32.6591 17.2 32.9191 17.01 33.0591 17.01C33.3391 17.01 33.4791 17.35 33.4791 18.03C33.4791 19.41 32.8691 20.77 31.6491 22.11C30.4491 23.45 29.0691 24.11 27.5091 24.09C26.5891 24.09 25.8991 23.72 25.4391 22.98C24.9791 22.24 24.7391 21.34 24.7191 20.28C24.7191 18.18 25.1891 16.19 26.1291 14.31C25.6891 14.49 25.1891 14.58 24.6291 14.58C24.0891 14.58 23.6991 14.56 23.4591 14.52C23.2791 15.28 23.0991 16.05 22.9191 16.83C22.7391 17.59 22.6491 18.3 22.6491 18.96ZM44.1001 21.45C42.5201 23.31 40.6201 24.24 38.4001 24.24C36.2001 24.24 34.5501 23.68 33.4501 22.56C32.3501 21.42 31.8101 20.01 31.8301 18.33C31.8101 15.95 32.5601 13.9 34.0801 12.18C35.6001 10.46 37.5901 9.6 40.0501 9.6C41.1701 9.6 42.0701 9.74 42.7501 10.02C43.9301 10.5 44.5201 10.95 44.5201 11.37C44.5201 11.69 43.6901 11.86 42.0301 11.88C40.3901 11.88 39.0101 12.45 37.8901 13.59C36.7901 14.71 36.2401 16.13 36.2401 17.85C36.2401 18.75 36.5001 19.51 37.0201 20.13C37.5601 20.73 38.3101 21.03 39.2701 21.03C40.2501 21.03 41.0601 20.83 41.7001 20.43C40.2801 19.47 39.5701 18.08 39.5701 16.26C39.5501 15.3 39.8901 14.43 40.5901 13.65C41.3101 12.85 42.2201 12.45 43.3201 12.45C44.4401 12.43 45.2401 12.73 45.7201 13.35C46.2001 13.97 46.4401 14.77 46.4401 15.75C46.4401 16.71 46.2101 17.73 45.7501 18.81H45.9301C46.8101 18.79 47.5701 18.48 48.2101 17.88C48.4501 17.64 48.6501 17.43 48.8101 17.25C48.9901 17.07 49.1701 16.98 49.3501 16.98C49.6301 16.98 49.7701 17.31 49.7701 17.97C49.7701 19.19 49.4101 20.11 48.6901 20.73C47.9701 21.33 47.1701 21.63 46.2901 21.63C45.4301 21.63 44.7001 21.57 44.1001 21.45ZM43.8301 17.97C44.1701 17.25 44.3401 16.55 44.3401 15.87C44.3401 15.19 44.1201 14.85 43.6801 14.85C43.5001 14.85 43.3501 14.98 43.2301 15.24C43.1101 15.5 43.0501 15.75 43.0501 15.99C43.0501 16.79 43.3101 17.45 43.8301 17.97ZM48.8391 8.73C48.8391 8.37 48.9691 8.19 49.2291 8.19C49.6291 8.19 50.0391 8.28 50.4591 8.46C50.8791 8.62 51.3291 8.75 51.8091 8.85C53.4091 5.43 55.2491 3.2 57.3291 2.16C58.0491 1.8 58.7691 1.62 59.4891 1.62C60.8291 1.64 61.7291 1.96 62.1891 2.58C62.6691 3.2 62.9091 4 62.9091 4.98C62.8891 6.84 62.0891 8.31 60.5091 9.39C58.9291 10.45 56.9991 11.04 54.7191 11.16C54.1391 12.7 53.6891 14.34 53.3691 16.08C54.1491 15.78 55.1491 15.63 56.3691 15.63C56.5291 16.89 56.8091 17.79 57.2091 18.33C57.6091 18.87 58.0491 19.14 58.5291 19.14C59.0291 19.14 59.4391 19.02 59.7591 18.78C60.0991 18.54 60.3891 18.27 60.6291 17.97C60.8891 17.67 61.0991 17.4 61.2591 17.16C61.4391 16.92 61.6091 16.8 61.7691 16.8C62.1091 16.8 62.2791 17.1 62.2791 17.7C62.2791 18.9 61.9791 19.9 61.3791 20.7C60.7791 21.48 59.8591 21.87 58.6191 21.87C56.6791 21.87 55.2991 21.36 54.4791 20.34C54.9191 24.74 55.1391 27.36 55.1391 28.2C55.1391 29.7 54.6691 30.77 53.7291 31.41C52.9491 31.95 51.9491 32.22 50.7291 32.22C49.5291 32.22 48.6891 31.94 48.2091 31.38C47.7491 30.84 47.5191 30.19 47.5191 29.43C47.5191 24.61 48.2091 19.76 49.5891 14.88C50.0291 13.32 50.5291 11.86 51.0891 10.5C49.5891 9.84 48.8391 9.25 48.8391 8.73ZM51.8391 29.91C52.0791 29.91 52.2991 29.72 52.4991 29.34C52.6991 28.98 52.7991 28.59 52.7991 28.17C52.7991 26.79 52.6091 24.67 52.2291 21.81C51.7291 23.87 51.3891 25.92 51.2091 27.96C51.1691 28.4 51.1491 28.67 51.1491 28.77C51.1491 29.53 51.3791 29.91 51.8391 29.91ZM59.2491 4.59C58.8491 4.59 58.2991 4.97 57.5991 5.73C56.9191 6.49 56.2191 7.65 55.4991 9.21C56.9591 8.57 57.9191 8.08 58.3791 7.74C59.3191 7.08 59.7891 6.29 59.7891 5.37C59.7891 4.85 59.6091 4.59 59.2491 4.59ZM64.3789 24.09C62.3789 24.09 61.3789 22.22 61.3789 18.48C61.3789 16.44 61.6289 14.59 62.1289 12.93C62.9089 10.37 63.7889 9.09 64.7689 9.09C65.3489 9.09 65.8089 9.48 66.1489 10.26C66.4289 10.86 66.5589 11.45 66.5389 12.03C66.5389 12.83 66.2989 14.24 65.8189 16.26C65.3589 18.02 65.1289 19.11 65.1289 19.53C65.1289 19.95 65.2289 20.24 65.4289 20.4C65.6489 20.56 65.8989 20.64 66.1789 20.64C66.4789 20.64 66.8489 20.45 67.2889 20.07C67.7289 19.69 68.1689 19.28 68.6089 18.84C69.0489 18.38 69.4489 17.96 69.8089 17.58C70.1889 17.2 70.4489 17.01 70.5889 17.01C70.8689 17.01 71.0089 17.35 71.0089 18.03C71.0089 19.43 70.2989 20.8 68.8789 22.14C67.4789 23.46 65.9789 24.11 64.3789 24.09ZM65.6089 6.66C65.0689 5.86 64.7989 5 64.7989 4.08C64.7989 3.16 64.9389 2.4 65.2189 1.8C65.5189 1.18 65.7989 0.729999 66.0589 0.449999C66.3189 0.149999 66.6189 -3.57628e-07 66.9589 -3.57628e-07C67.5189 -3.57628e-07 68.0289 0.42 68.4889 1.26C68.9489 2.08 69.1789 2.77 69.1789 3.33C69.1789 4.37 68.8089 5.19 68.0689 5.79C67.3489 6.37 66.5289 6.66 65.6089 6.66ZM76.1994 24.09C73.3394 24.11 71.3894 23.04 70.3494 20.88C69.9894 20.12 69.8094 19.17 69.8094 18.03C69.8094 16.87 69.9094 15.64 70.1094 14.34C70.5094 11.74 71.2794 9.34 72.4194 7.14C72.9994 6.02 73.6494 5.06 74.3694 4.26C75.9494 2.5 77.7094 1.63 79.6494 1.65C80.5094 1.65 81.1794 1.89 81.6594 2.37C82.1594 2.83 82.4094 3.5 82.4094 4.38C82.4094 5.26 82.1494 6.15 81.6294 7.05C81.1094 7.93 80.4394 8.85 79.6194 9.81C78.8194 10.75 77.9294 11.74 76.9494 12.78C75.9694 13.82 75.0094 14.95 74.0694 16.17V17.37C74.0694 18.49 74.3094 19.31 74.7894 19.83C75.2694 20.35 75.8294 20.61 76.4694 20.61C78.1894 20.61 79.7094 19.76 81.0294 18.06C81.5694 17.36 81.9794 17.01 82.2594 17.01C82.5394 17.01 82.6794 17.35 82.6794 18.03C82.6794 18.71 82.4894 19.41 82.1094 20.13C81.7494 20.83 81.2694 21.48 80.6694 22.08C80.0694 22.66 79.3794 23.14 78.5994 23.52C77.8194 23.9 77.0194 24.09 76.1994 24.09ZM77.8194 7.98C78.2394 7.46 78.5694 6.99 78.8094 6.57C79.0494 6.15 79.1694 5.72 79.1694 5.28C79.1694 4.82 79.0094 4.59 78.6894 4.59C77.9894 4.59 77.2094 5.31 76.3494 6.75C75.5094 8.19 74.8794 10.08 74.4594 12.42C75.1394 11.38 75.7594 10.51 76.3194 9.81C76.8994 9.11 77.3994 8.5 77.8194 7.98ZM87.8959 20.73C89.4559 20.73 90.9659 20.11 92.4259 18.87C92.9659 18.41 93.4059 17.99 93.7459 17.61C94.0859 17.21 94.3459 17.01 94.5259 17.01C94.8059 17.01 94.9459 17.29 94.9459 17.85C94.9459 18.41 94.7959 19.04 94.4959 19.74C94.1959 20.42 93.6959 21.09 92.9959 21.75C91.2759 23.37 88.9159 24.18 85.9159 24.18C83.5359 24.18 81.9159 23.32 81.0559 21.6C80.7559 21 80.6059 20.14 80.6059 19.02C80.6059 17.9 80.8259 16.74 81.2659 15.54C81.7059 14.32 82.2859 13.27 83.0059 12.39C83.7459 11.51 84.5959 10.83 85.5559 10.35C86.5159 9.85 87.5359 9.6 88.6159 9.6C89.7159 9.6 90.5559 9.87 91.1359 10.41C91.7359 10.95 92.0359 11.65 92.0359 12.51C92.0359 13.37 91.8159 14.08 91.3759 14.64C90.9559 15.18 90.4059 15.64 89.7259 16.02C89.0459 16.38 88.2859 16.71 87.4459 17.01C86.6259 17.29 85.8159 17.61 85.0159 17.97V18.72C85.0359 19.44 85.3359 19.95 85.9159 20.25C86.4959 20.55 87.1559 20.71 87.8959 20.73ZM87.3859 12.27C86.3459 12.27 85.6259 13.48 85.2259 15.9C85.6459 15.62 86.0359 15.37 86.3959 15.15C86.7759 14.93 87.1059 14.72 87.3859 14.52C87.9859 14.08 88.2959 13.58 88.3159 13.02C88.3159 12.52 88.0059 12.27 87.3859 12.27Z" fill="#003659"/>
</svg>
