<svg width="15" height="15" viewBox="0 0 15 15" fill="none" xmlns="http://www.w3.org/2000/svg">
<g clip-path="url(#clip0)">
<path d="M14.9291 7.32398L9.81742 2.07402C9.72344 1.97728 9.55317 1.97728 9.45918 2.07402L8.07093 3.49977C7.97619 3.597 7.97642 3.75228 8.07143 3.84928L10.4242 6.2485H0.249988C0.112001 6.2485 0 6.3605 0 6.49849V8.49848C0 8.63647 0.112001 8.74847 0.249988 8.74847H10.4242L8.07143 11.1477C7.97642 11.2447 7.97619 11.3999 8.07093 11.4972L9.45918 12.9229C9.50618 12.9712 9.57069 12.9984 9.63819 12.9984C9.70568 12.9984 9.7702 12.9712 9.81742 12.9229L14.9291 7.67299C15.0236 7.57572 15.0236 7.42098 14.9291 7.32398Z" fill="#014C79"/>
</g>
<defs>
<clipPath id="clip0">
<rect width="15" height="15" fill="white"/>
</clipPath>
</defs>
</svg>
