<svg width="321" height="68" viewBox="0 0 321 68" fill="none" xmlns="http://www.w3.org/2000/svg">
<g filter="url(#filter0_d)">
<rect x="4" width="313" height="60" rx="20" fill="#014C79"/>
</g>
<path d="M145.765 35.38C147.205 35.38 147.925 34.804 147.925 33.652C147.925 33.052 147.607 32.608 146.971 32.32C146.635 32.152 146.197 31.996 145.657 31.852C145.129 31.708 144.685 31.564 144.325 31.42C143.977 31.264 143.623 31.054 143.263 30.79C142.555 30.262 142.201 29.452 142.201 28.36C142.201 27.256 142.579 26.392 143.335 25.768C144.103 25.132 145.099 24.814 146.323 24.814C147.559 24.814 148.705 25.06 149.761 25.552V28.252L147.925 28.378V27.334C147.925 27.154 147.901 27.022 147.853 26.938C147.721 26.71 147.295 26.596 146.575 26.596C145.867 26.596 145.339 26.722 144.991 26.974C144.655 27.226 144.487 27.616 144.487 28.144C144.487 28.528 144.631 28.864 144.919 29.152C145.111 29.344 145.393 29.506 145.765 29.638C146.149 29.758 146.551 29.884 146.971 30.016C147.403 30.148 147.781 30.292 148.105 30.448C148.441 30.604 148.789 30.82 149.149 31.096C149.881 31.636 150.247 32.47 150.247 33.598C150.247 34.726 149.839 35.614 149.023 36.262C148.219 36.91 147.151 37.234 145.819 37.234C144.499 37.234 143.311 36.988 142.255 36.496V33.652L144.091 33.526V34.624C144.091 34.804 144.115 34.936 144.163 35.02C144.211 35.104 144.355 35.188 144.595 35.272C144.847 35.344 145.237 35.38 145.765 35.38ZM155.61 27.676C156.51 27.676 157.224 27.898 157.752 28.342C158.28 28.774 158.544 29.386 158.544 30.178C158.544 30.706 158.43 31.174 158.202 31.582C157.974 31.978 157.692 32.29 157.356 32.518C157.02 32.746 156.612 32.932 156.132 33.076C155.328 33.316 154.422 33.436 153.414 33.436C153.45 34.072 153.648 34.588 154.008 34.984C154.368 35.368 154.92 35.56 155.664 35.56C156.408 35.56 157.152 35.296 157.896 34.768L158.58 36.226C158.34 36.442 157.932 36.664 157.356 36.892C156.792 37.12 156.144 37.234 155.412 37.234C153.948 37.234 152.874 36.832 152.19 36.028C151.506 35.212 151.164 34.096 151.164 32.68C151.164 31.264 151.554 30.076 152.334 29.116C153.114 28.156 154.206 27.676 155.61 27.676ZM154.782 31.798C155.226 31.714 155.634 31.54 156.006 31.276C156.378 31 156.564 30.676 156.564 30.304C156.564 29.572 156.204 29.206 155.484 29.206C154.812 29.206 154.296 29.476 153.936 30.016C153.576 30.544 153.378 31.18 153.342 31.924C153.87 31.912 154.35 31.87 154.782 31.798ZM159.369 29.386V27.946H162.411V29.116C162.723 28.672 163.137 28.324 163.653 28.072C164.169 27.808 164.727 27.676 165.327 27.676C166.239 27.676 166.941 27.94 167.433 28.468C167.937 28.984 168.189 29.764 168.189 30.808V35.506L169.215 35.56V37H164.931V35.632L165.525 35.578C165.705 35.554 165.837 35.506 165.921 35.434C166.005 35.35 166.047 35.2 166.047 34.984V31.276C166.047 30.616 165.945 30.13 165.741 29.818C165.537 29.494 165.147 29.332 164.571 29.332C164.007 29.332 163.557 29.512 163.221 29.872C162.885 30.232 162.717 30.658 162.717 31.15V35.506L163.743 35.56V37H159.459V35.632L160.053 35.578C160.233 35.554 160.365 35.506 160.449 35.434C160.533 35.35 160.575 35.2 160.575 34.984V29.998C160.575 29.638 160.425 29.452 160.125 29.44L159.369 29.386ZM174.455 27.676C174.971 27.676 175.463 27.748 175.931 27.892V26.074C175.931 25.81 175.775 25.666 175.463 25.642L174.689 25.588V24.166H178.037V35.11C178.049 35.386 178.199 35.524 178.487 35.524L179.117 35.56V37H176.201V35.938L176.147 35.92C175.607 36.796 174.791 37.234 173.699 37.234C172.331 37.234 171.371 36.778 170.819 35.866C170.315 35.038 170.063 34.024 170.063 32.824C170.063 31.264 170.447 30.016 171.215 29.08C171.995 28.144 173.075 27.676 174.455 27.676ZM175.931 34.192V29.53C175.499 29.338 175.043 29.242 174.563 29.242C173.771 29.242 173.189 29.56 172.817 30.196C172.457 30.832 172.277 31.642 172.277 32.626C172.277 34.642 172.925 35.65 174.221 35.65C174.713 35.65 175.121 35.512 175.445 35.236C175.769 34.948 175.931 34.6 175.931 34.192Z" fill="white"/>
<defs>
<filter id="filter0_d" x="0" y="0" width="321" height="68" filterUnits="userSpaceOnUse" color-interpolation-filters="sRGB">
<feFlood flood-opacity="0" result="BackgroundImageFix"/>
<feColorMatrix in="SourceAlpha" type="matrix" values="0 0 0 0 0 0 0 0 0 0 0 0 0 0 0 0 0 0 127 0"/>
<feOffset dy="4"/>
<feGaussianBlur stdDeviation="2"/>
<feColorMatrix type="matrix" values="0 0 0 0 0 0 0 0 0 0 0 0 0 0 0 0 0 0 0.25 0"/>
<feBlend mode="normal" in2="BackgroundImageFix" result="effect1_dropShadow"/>
<feBlend mode="normal" in="SourceGraphic" in2="effect1_dropShadow" result="shape"/>
</filter>
</defs>
</svg>
