<svg width="323" height="20" viewBox="0 0 323 20" fill="none" xmlns="http://www.w3.org/2000/svg">
<path d="M158.185 14.905C159.275 14.905 159.82 14.025 159.82 12.265C159.82 11.375 159.695 10.7 159.445 10.24C159.205 9.78 158.795 9.55 158.215 9.55C157.645 9.55 157.225 9.77 156.955 10.21C156.685 10.65 156.55 11.25 156.55 12.01C156.55 13.42 156.81 14.305 157.33 14.665C157.56 14.825 157.845 14.905 158.185 14.905ZM154.735 12.22C154.735 11.48 154.845 10.84 155.065 10.3C155.285 9.75 155.58 9.33 155.95 9.04C156.66 8.5 157.445 8.23 158.305 8.23C158.905 8.23 159.41 8.33 159.82 8.53C160.24 8.72 160.565 8.945 160.795 9.205C161.035 9.455 161.235 9.825 161.395 10.315C161.565 10.795 161.65 11.365 161.65 12.025C161.65 13.405 161.315 14.45 160.645 15.16C159.975 15.87 159.115 16.225 158.065 16.225C157.025 16.225 156.21 15.89 155.62 15.22C155.03 14.54 154.735 13.54 154.735 12.22ZM163.256 14.32V10.165C163.256 10.005 163.226 9.895 163.166 9.835C163.116 9.765 163.021 9.725 162.881 9.715L162.251 9.67V8.455H164.786V9.58C164.966 9.19 165.246 8.87 165.626 8.62C166.006 8.36 166.441 8.23 166.931 8.23C167.431 8.23 167.906 8.34 168.356 8.56V10.795L166.961 10.9V10.21C166.961 10.01 166.911 9.885 166.811 9.835C166.701 9.785 166.566 9.76 166.406 9.76C166.006 9.76 165.676 9.905 165.416 10.195C165.166 10.475 165.041 10.835 165.041 11.275V14.755L166.346 14.815V16H162.326V14.86L162.821 14.815C162.971 14.795 163.081 14.755 163.151 14.695C163.221 14.625 163.256 14.5 163.256 14.32Z" fill="#747474"/>
<line x1="-1.31134e-07" y1="12.5" x2="143" y2="12.5" stroke="#747474" stroke-width="3"/>
<line x1="180" y1="12.5" x2="323" y2="12.5" stroke="#747474" stroke-width="3"/>
</svg>
