<svg width="38" height="38" viewBox="0 0 38 38" fill="none" xmlns="http://www.w3.org/2000/svg">
<path d="M19 10.3906C14.2527 10.3906 10.3906 14.2528 10.3906 19C10.3906 23.7472 14.2527 27.6094 19 27.6094C19.8867 27.6094 20.7616 27.4748 21.6003 27.2093C22.3819 26.962 22.8149 26.1278 22.5675 25.3462C22.3202 24.5646 21.4859 24.1316 20.7044 24.3789C20.1558 24.5526 19.5824 24.6406 19 24.6406C15.8898 24.6406 13.3594 22.1103 13.3594 19C13.3594 15.8897 15.8898 13.3594 19 13.3594C22.1102 13.3594 24.6406 15.8897 24.6406 19C24.6406 19.5405 24.5646 20.0746 24.4146 20.5872C24.1845 21.3741 24.6358 22.1985 25.4227 22.4286C26.2097 22.6588 27.0339 22.2074 27.2641 21.4206C27.4932 20.6371 27.6094 19.8226 27.6094 19C27.6094 14.2528 23.7473 10.3906 19 10.3906Z" fill="#9F9F9F"/>
<path d="M33.5469 13.8048H32.7994C32.6027 13.8048 32.4245 13.6809 32.3473 13.494L32.3341 13.4619C32.2541 13.2694 32.2924 13.0552 32.4314 12.9161L32.96 12.3875C34.6963 10.6512 34.6963 7.82607 32.96 6.0898L31.9104 5.0402C31.0693 4.19907 29.951 3.73587 28.7615 3.73587C27.572 3.73587 26.4537 4.19907 25.6127 5.0402L25.0842 5.56871C24.945 5.70787 24.7305 5.74602 24.5389 5.66638L24.5109 5.6548C24.3192 5.57561 24.1954 5.39741 24.1954 5.2008V4.45312C24.1954 1.99767 22.1977 0 19.7423 0H18.2579C15.8024 0 13.8048 1.99767 13.8048 4.45312V5.2008C13.8048 5.39741 13.681 5.57561 13.4909 5.65406L13.4619 5.66608C13.2696 5.74609 13.0551 5.70787 12.9161 5.56878L12.3875 5.0402C11.5464 4.19907 10.4281 3.73587 9.2386 3.73587C8.0491 3.73587 6.93084 4.19907 6.08972 5.0402L5.04012 6.08965C3.30385 7.826 3.30385 10.6511 5.0402 12.3874L5.56871 12.9159C5.70779 13.0551 5.74594 13.2693 5.66378 13.4674L5.6548 13.489C5.57568 13.6807 5.39734 13.8046 5.20073 13.8046H4.45312C1.99767 13.8046 0 15.8023 0 18.2577V19.7421C0 22.1976 1.99767 24.1952 4.45312 24.1952H5.20066C5.39734 24.1952 5.57554 24.3191 5.6528 24.506L5.66601 24.5381C5.74594 24.7306 5.70772 24.9448 5.56863 25.0839L5.04012 25.6125C4.199 26.4536 3.7358 27.5719 3.7358 28.7614C3.7358 29.9508 4.199 31.0691 5.04005 31.9102L6.08965 32.9598C6.93077 33.8009 8.0491 34.2641 9.23853 34.2641C10.4281 34.2641 11.5464 33.8009 12.3874 32.9598L12.9159 32.4313C13.0549 32.2921 13.2695 32.254 13.4612 32.3336L13.4892 32.3452C13.6809 32.4244 13.8047 32.6026 13.8047 32.7992V33.5469C13.8047 36.0023 15.8024 38 18.2578 38H19.7422C22.1976 38 24.1953 36.0023 24.1953 33.5469V32.7992C24.1953 32.6026 24.3191 32.4244 24.5092 32.3459L24.5382 32.3339C24.7307 32.2541 24.945 32.2922 25.084 32.4312L25.6126 32.9598C26.4536 33.8009 27.572 34.2641 28.7615 34.2641C29.951 34.2641 31.0692 33.8009 31.9104 32.9598L32.96 31.9102C33.801 31.0692 34.2642 29.9508 34.2642 28.7614C34.2642 27.5719 33.801 26.4536 32.96 25.6126L32.4314 25.084C32.2922 24.9449 32.2541 24.7307 32.334 24.5381L32.3452 24.511C32.4244 24.3193 32.6027 24.1954 32.7993 24.1954H33.5469C36.0023 24.1954 38 22.1977 38 19.7423V18.2579C38 15.8024 36.0023 13.8048 33.5469 13.8048ZM35.0312 19.7422C35.0312 20.5607 34.3654 21.2266 33.5469 21.2266H32.7993C31.3962 21.2266 30.1409 22.0709 29.6013 23.3776L29.5916 23.4009C29.05 24.7071 29.3405 26.1916 30.332 27.1832L30.8607 27.7118C31.141 27.9921 31.2954 28.3649 31.2954 28.7614C31.2954 29.1579 31.141 29.5306 30.8606 29.811L29.8111 30.8606C29.5306 31.1409 29.1579 31.2954 28.7614 31.2954C28.3648 31.2954 27.9921 31.141 27.7118 30.8606L27.1831 30.3319C26.191 29.34 24.7056 29.0497 23.3986 29.5926L23.3777 29.6013C22.0709 30.1408 21.2266 31.3961 21.2266 32.7992V33.5469C21.2266 34.3654 20.5607 35.0312 19.7422 35.0312H18.2578C17.4393 35.0312 16.7734 34.3654 16.7734 33.5469V32.7992C16.7734 31.3961 15.9291 30.1408 14.6207 29.6006L14.6007 29.5923C14.1635 29.4107 13.7066 29.3224 13.2546 29.3224C12.3557 29.3224 11.477 29.6719 10.8168 30.332L10.2882 30.8607C10.0078 31.141 9.63515 31.2954 9.2386 31.2954C8.84212 31.2954 8.46932 31.1409 8.189 30.8606L7.1394 29.811C6.859 29.5306 6.70462 29.1579 6.70462 28.7614C6.70462 28.3649 6.859 27.9921 7.1394 27.7118L7.66798 27.1832C8.65962 26.1916 8.95011 24.7071 8.40839 23.4009L8.39874 23.3776C7.85902 22.0709 6.60376 21.2266 5.20073 21.2266H4.45312C3.63464 21.2266 2.96875 20.5607 2.96875 19.7422V18.2578C2.96875 17.4393 3.63464 16.7734 4.45312 16.7734H5.20073C6.60384 16.7734 7.8591 15.9291 8.40075 14.6176L8.40765 14.6008C8.95034 13.2942 8.65999 11.8089 7.66791 10.8168L7.1394 10.2883C6.56057 9.70945 6.56057 8.76776 7.1394 8.189L8.18893 7.1394C8.4694 6.85907 8.84212 6.70462 9.2386 6.70462C9.63515 6.70462 10.0079 6.859 10.2882 7.1394L10.8169 7.66806C11.8091 8.66007 13.2944 8.95041 14.6014 8.40743L14.6223 8.39874C15.9291 7.85917 16.7734 6.60391 16.7734 5.2008V4.45312C16.7734 3.63464 17.4393 2.96875 18.2578 2.96875H19.7422C20.5607 2.96875 21.2266 3.63464 21.2266 4.45312V5.2008C21.2266 6.60391 22.0709 7.85917 23.3793 8.39934L23.3993 8.40765C24.7056 8.95019 26.191 8.65992 27.1832 7.66791L27.7118 7.13925C27.9922 6.85893 28.3648 6.70455 28.7614 6.70455C29.1579 6.70455 29.5307 6.859 29.811 7.13932L30.8606 8.18893C31.4394 8.76768 31.4394 9.70937 30.8607 10.2881L30.332 10.8168C29.34 11.8089 29.0497 13.2941 29.5901 14.5953L29.6013 14.6224C30.141 15.9291 31.3962 16.7734 32.7993 16.7734H33.5469C34.3654 16.7734 35.0312 17.4393 35.0312 18.2578V19.7422Z" fill="#9F9F9F"/>
</svg>
