<svg width="38" height="38" viewBox="0 0 38 38" fill="none" xmlns="http://www.w3.org/2000/svg">
<path d="M37.5686 17.4841L22.1022 1.25047C22.0824 1.22957 22.0618 1.2093 22.0409 1.18964C20.352 -0.391528 17.8 -0.397177 16.1047 1.17656C16.0836 1.19614 16.0632 1.21634 16.0432 1.23708L0.435804 17.4794C-0.144438 18.0834 -0.145403 19.0634 0.433726 19.6684C1.01293 20.2735 1.95276 20.2744 2.53293 19.6706L3.71093 18.4446V31.8088C3.71093 35.2226 6.37449 38 9.64843 38H14.9922C15.812 38 16.4766 37.307 16.4766 36.4522V23.8375H21.6719V36.4522C21.6719 37.307 22.3364 38 23.1562 38H28.3516C31.6255 38 34.2891 35.2226 34.2891 31.8088C34.2891 30.9539 33.6245 30.2609 32.8047 30.2609C31.9849 30.2609 31.3203 30.9539 31.3203 31.8088C31.3203 33.5157 29.9885 34.9044 28.3516 34.9044H24.6406V22.2897C24.6406 21.4349 23.9761 20.7419 23.1562 20.7419H14.9922C14.1724 20.7419 13.5078 21.4349 13.5078 22.2897V34.9044H9.64843C8.01146 34.9044 6.67968 33.5157 6.67968 31.8088V15.402C6.67968 15.3865 6.67946 15.3711 6.67901 15.3558L18.1054 3.46461C18.6615 2.97218 19.4771 2.97403 20.0311 3.46887L31.3203 15.3181V24.0697C31.3203 24.9246 31.9849 25.6175 32.8047 25.6175C33.6245 25.6175 34.2891 24.9246 34.2891 24.0697V18.4341L35.4626 19.6659C35.7527 19.9705 36.1341 20.1229 36.5156 20.1229C36.8939 20.1229 37.2723 19.9729 37.5618 19.6731C38.1434 19.0706 38.1465 18.0906 37.5686 17.4841Z" fill="#9F9F9F"/>
</svg>
