<svg width="280" height="39" viewBox="0 0 280 39" fill="none" xmlns="http://www.w3.org/2000/svg">
<rect width="280" height="39" rx="5" fill="#F44336"/>
<path d="M122.772 25H115.647V23.785L116.142 23.74C116.432 23.71 116.577 23.57 116.577 23.32V16.345L115.722 16.3V15.025H119.337V16.24L118.842 16.285C118.552 16.315 118.407 16.475 118.407 16.765V23.455H120.897C121.037 23.455 121.127 23.42 121.167 23.35C121.217 23.27 121.242 23.145 121.242 22.975V21.925L122.772 22.03V25ZM126.835 23.905C127.925 23.905 128.47 23.025 128.47 21.265C128.47 20.375 128.345 19.7 128.095 19.24C127.855 18.78 127.445 18.55 126.865 18.55C126.295 18.55 125.875 18.77 125.605 19.21C125.335 19.65 125.2 20.25 125.2 21.01C125.2 22.42 125.46 23.305 125.98 23.665C126.21 23.825 126.495 23.905 126.835 23.905ZM123.385 21.22C123.385 20.48 123.495 19.84 123.715 19.3C123.935 18.75 124.23 18.33 124.6 18.04C125.31 17.5 126.095 17.23 126.955 17.23C127.555 17.23 128.06 17.33 128.47 17.53C128.89 17.72 129.215 17.945 129.445 18.205C129.685 18.455 129.885 18.825 130.045 19.315C130.215 19.795 130.3 20.365 130.3 21.025C130.3 22.405 129.965 23.45 129.295 24.16C128.625 24.87 127.765 25.225 126.715 25.225C125.675 25.225 124.86 24.89 124.27 24.22C123.68 23.54 123.385 22.54 123.385 21.22ZM137.652 24.985C137.562 26.095 137.242 26.91 136.692 27.43C136.142 27.95 135.282 28.21 134.112 28.21C132.942 28.21 132.027 28.045 131.367 27.715V25.63L132.792 25.51V26.23C132.792 26.5 132.917 26.68 133.167 26.77C133.417 26.87 133.762 26.92 134.202 26.92C134.842 26.92 135.292 26.725 135.552 26.335C135.812 25.955 135.942 25.415 135.942 24.715V23.89C135.462 24.45 134.797 24.73 133.947 24.73C133.427 24.73 132.967 24.63 132.567 24.43C132.177 24.23 131.872 23.96 131.652 23.62C131.222 22.94 131.007 22.14 131.007 21.22C131.007 19.91 131.362 18.92 132.072 18.25C132.782 17.57 133.727 17.23 134.907 17.23C135.887 17.23 136.812 17.415 137.682 17.785V23.35C137.682 24.2 137.672 24.745 137.652 24.985ZM135.942 21.94V18.715C135.592 18.595 135.192 18.535 134.742 18.535C134.132 18.535 133.662 18.76 133.332 19.21C133.012 19.66 132.852 20.27 132.852 21.04C132.852 22.62 133.372 23.41 134.412 23.41C134.842 23.41 135.202 23.28 135.492 23.02C135.792 22.75 135.942 22.39 135.942 21.94ZM146.152 14.845C147.342 14.845 148.337 15.265 149.137 16.105C149.937 16.945 150.337 18.23 150.337 19.96C150.337 21.68 149.937 22.985 149.137 23.875C148.347 24.755 147.272 25.195 145.912 25.195C144.562 25.195 143.502 24.755 142.732 23.875C141.962 22.995 141.577 21.715 141.577 20.035C141.577 19.115 141.712 18.31 141.982 17.62C142.252 16.92 142.607 16.38 143.047 16C143.937 15.23 144.972 14.845 146.152 14.845ZM143.452 19.96C143.452 22.44 144.312 23.68 146.032 23.68C146.952 23.68 147.597 23.3 147.967 22.54C148.307 21.87 148.477 21.05 148.477 20.08C148.477 19.21 148.327 18.41 148.027 17.68C147.857 17.28 147.597 16.965 147.247 16.735C146.907 16.505 146.462 16.39 145.912 16.39C145.362 16.39 144.887 16.57 144.487 16.93C144.097 17.29 143.827 17.725 143.677 18.235C143.527 18.745 143.452 19.32 143.452 19.96ZM158.904 23.815V25H156.474V24.025C155.924 24.805 155.114 25.195 154.044 25.195C152.494 25.195 151.719 24.33 151.719 22.6V19.135C151.719 18.865 151.594 18.725 151.344 18.715L150.864 18.685V17.455H153.504V22.21C153.504 22.74 153.579 23.14 153.729 23.41C153.879 23.68 154.189 23.815 154.659 23.815C155.129 23.815 155.504 23.67 155.784 23.38C156.074 23.09 156.219 22.74 156.219 22.33V19.165C156.219 19.005 156.189 18.895 156.129 18.835C156.079 18.765 155.984 18.725 155.844 18.715L155.364 18.685V17.455H158.004V23.335C158.004 23.495 158.029 23.605 158.079 23.665C158.129 23.715 158.229 23.75 158.379 23.77L158.904 23.815ZM160.693 15.865H161.668V17.455H163.663L163.513 18.715H161.668V22.66C161.668 23.1 161.748 23.41 161.908 23.59C162.068 23.76 162.313 23.845 162.643 23.845C162.983 23.845 163.323 23.74 163.663 23.53L164.113 24.685C163.613 25.035 162.978 25.21 162.208 25.21C161.758 25.21 161.378 25.15 161.068 25.03C160.758 24.92 160.528 24.795 160.378 24.655C160.228 24.515 160.113 24.31 160.033 24.04C159.953 23.77 159.908 23.56 159.898 23.41C159.888 23.25 159.883 23.02 159.883 22.72V18.715H158.818L158.968 17.62C159.438 17.58 159.793 17.415 160.033 17.125C160.273 16.825 160.493 16.405 160.693 15.865Z" fill="white"/>
</svg>
