<svg width="25" height="25" viewBox="0 0 25 25" fill="none" xmlns="http://www.w3.org/2000/svg">
<path d="M14.53 9.66424C15.22 8.96395 16.0287 8.59378 16.8689 8.59378H19.8271L18.7026 9.71824C18.5938 9.82707 18.5075 9.95625 18.4486 10.0984C18.3897 10.2406 18.3594 10.393 18.3594 10.5469C18.3594 10.7008 18.3897 10.8532 18.4486 10.9954C18.5075 11.1376 18.5938 11.2667 18.7026 11.3756C18.9224 11.5953 19.2204 11.7188 19.5313 11.7188C19.6852 11.7188 19.8375 11.6885 19.9797 11.6296C20.1219 11.5707 20.2511 11.4844 20.3599 11.3756L23.4849 8.25057C23.5938 8.14175 23.6801 8.01256 23.739 7.87038C23.7979 7.72819 23.8282 7.5758 23.8282 7.42191C23.8282 7.26801 23.7979 7.11562 23.739 6.97343C23.6801 6.83125 23.5938 6.70206 23.4849 6.59324L20.3599 3.46824C20.2511 3.35942 20.1219 3.2731 19.9797 3.21421C19.8375 3.15531 19.6852 3.125 19.5313 3.125C19.3774 3.125 19.225 3.15531 19.0828 3.21421C18.9406 3.2731 18.8114 3.35942 18.7026 3.46824C18.5938 3.57706 18.5075 3.70625 18.4486 3.84844C18.3897 3.99062 18.3594 4.14301 18.3594 4.29691C18.3594 4.4508 18.3897 4.60319 18.4486 4.74537C18.5075 4.88756 18.5938 5.01675 18.7026 5.12557L19.8271 6.25003H16.8689C15.1147 6.25003 13.5067 7.13231 12.3496 8.59759C12.8704 9.37311 13.2701 10.2234 13.5352 11.1191C13.783 10.5819 14.1193 10.0901 14.53 9.66424Z" fill="#014C79"/>
<path d="M9.20176 15.3359C8.51177 16.0362 7.70298 16.4063 6.86284 16.4063H2.34375C2.03295 16.4063 1.73488 16.5298 1.51511 16.7496C1.29534 16.9693 1.17188 17.2674 1.17188 17.5782C1.17188 17.889 1.29534 18.1871 1.51511 18.4068C1.73488 18.6266 2.03295 18.7501 2.34375 18.7501H6.86284C8.61694 18.7501 10.225 17.8678 11.3821 16.4025C10.8613 15.627 10.4615 14.7768 10.1964 13.881C9.94861 14.4182 9.61238 14.91 9.20176 15.3359Z" fill="#014C79"/>
<path d="M20.3599 13.6245C20.2511 13.5156 20.1219 13.4293 19.9797 13.3704C19.8375 13.3115 19.6851 13.2812 19.5312 13.2812C19.3774 13.2812 19.225 13.3115 19.0828 13.3704C18.9406 13.4293 18.8114 13.5156 18.7026 13.6245C18.5938 13.7333 18.5074 13.8625 18.4486 14.0047C18.3897 14.1468 18.3593 14.2992 18.3593 14.4531C18.3593 14.607 18.3897 14.7594 18.4486 14.9016C18.5074 15.0438 18.5938 15.173 18.7026 15.2818L19.8271 16.4063H16.8689C16.0287 16.4063 15.22 16.0361 14.53 15.3358C13.7885 14.5831 13.251 13.4975 13.0167 12.2787C12.334 8.72905 9.80347 6.25 6.86284 6.25H2.34375C2.03295 6.25 1.73488 6.37346 1.51511 6.59323C1.29534 6.813 1.17188 7.11107 1.17188 7.42188C1.17188 7.73268 1.29534 8.03075 1.51511 8.25052C1.73488 8.47029 2.03295 8.59375 2.34375 8.59375H6.86284C7.70298 8.59375 8.51177 8.96392 9.20171 9.66421C9.94321 10.4168 10.4807 11.5025 10.715 12.7213C11.3977 16.2709 13.9282 18.75 16.8689 18.75H19.8271L18.7026 19.8745C18.4828 20.0942 18.3593 20.3923 18.3593 20.7031C18.3593 21.0139 18.4828 21.312 18.7026 21.5318C18.9224 21.7516 19.2204 21.875 19.5312 21.875C19.8421 21.875 20.1401 21.7516 20.3599 21.5318L23.4849 18.4068C23.5937 18.298 23.6801 18.1688 23.739 18.0266C23.7979 17.8844 23.8282 17.732 23.8282 17.5781C23.8282 17.4242 23.7979 17.2718 23.739 17.1297C23.6801 16.9875 23.5937 16.8583 23.4849 16.7495L20.3599 13.6245Z" fill="#014C79"/>
</svg>
