<svg width="146" height="35" viewBox="0 0 146 35" fill="none" xmlns="http://www.w3.org/2000/svg">
<path d="M61.2 13.9C61.4 14.14 61.54 14.3333 61.62 14.48C61.7 14.6267 61.74 14.7667 61.74 14.9C61.74 15.06 61.6333 15.2467 61.42 15.46C61.22 15.6733 61.02 15.78 60.82 15.78C60.5533 15.78 60.34 15.74 60.18 15.66C60.02 15.58 59.8867 15.4533 59.78 15.28C59.5667 14.96 59.3067 14.6867 59 14.46C58.6933 14.22 58.2133 14.1 57.56 14.1C57 14.1 56.36 14.2267 55.64 14.48C54.9333 14.7333 54.4267 15.0467 54.12 15.42C53.8533 15.7533 53.62 16.26 53.42 16.94C53.2333 17.62 53.14 18.28 53.14 18.92C53.14 19.6933 53.3067 20.4067 53.64 21.06C53.9867 21.7 54.48 22.2133 55.12 22.6C55.7733 22.9867 56.5533 23.18 57.46 23.18C57.9533 23.18 58.46 23.0867 58.98 22.9C59.5133 22.7 59.9733 22.38 60.36 21.94H60.34C60.58 21.6867 60.88 21.56 61.24 21.56C61.4533 21.56 61.6533 21.6533 61.84 21.84C62.04 22.0267 62.14 22.2133 62.14 22.4C62.14 22.6 62.1067 22.78 62.04 22.94C61.9867 23.0867 61.88 23.2533 61.72 23.44C61.1733 24.0533 60.5267 24.4733 59.78 24.7C59.0333 24.9267 58.14 25.04 57.1 25.04C56.18 25.04 55.2467 24.82 54.3 24.38C53.3667 23.94 52.6467 23.4067 52.14 22.78C51.8733 22.3933 51.6133 21.84 51.36 21.12C51.12 20.3867 51 19.7933 51 19.34C51 18.18 51.1733 17.08 51.52 16.04C51.88 14.9867 52.4133 14.1467 53.12 13.52C53.5867 13.0933 54.26 12.7733 55.14 12.56C56.02 12.3467 56.8267 12.24 57.56 12.24C58.4533 12.24 59.1533 12.3667 59.66 12.62C60.18 12.86 60.6933 13.2867 61.2 13.9ZM71.8316 18.58C71.9382 18.7667 72.0249 19.04 72.0916 19.4C72.1582 19.7467 72.1916 20.06 72.1916 20.34C72.1916 20.86 72.0782 21.6 71.8516 22.56C70.9316 24.24 69.5716 25.08 67.7716 25.08C67.1049 25.08 66.4249 24.86 65.7316 24.42C65.0382 23.98 64.5582 23.4733 64.2916 22.9C63.9316 21.7533 63.7516 21.0267 63.7516 20.72C63.7516 20.1867 63.8649 19.62 64.0916 19.02C64.3316 18.42 64.6316 17.9 64.9916 17.46C65.2182 17.1533 65.6249 16.8933 66.2116 16.68C66.7982 16.4533 67.3316 16.34 67.8116 16.34C68.7449 16.34 69.5382 16.52 70.1916 16.88C70.8449 17.2267 71.3916 17.7933 71.8316 18.58ZM70.0916 21.8C70.1582 21.6267 70.1916 21.18 70.1916 20.46C70.1916 20.0733 70.1182 19.6933 69.9716 19.32C69.8382 18.9467 69.6382 18.6267 69.3716 18.36C69.3449 18.3333 69.2716 18.2933 69.1516 18.24C69.0316 18.1733 68.8649 18.1133 68.6516 18.06C68.4516 17.9933 68.2182 17.96 67.9516 17.96C67.2049 17.96 66.6582 18.26 66.3116 18.86C65.9649 19.46 65.7916 20.14 65.7916 20.9C65.7916 21.0333 65.8249 21.2867 65.8916 21.66C65.9716 22.0333 66.0382 22.2667 66.0916 22.36C66.1316 22.4533 66.2316 22.5867 66.3916 22.76C66.5649 22.92 66.7716 23.0667 67.0116 23.2C67.2649 23.32 67.5249 23.38 67.7916 23.38C68.3916 23.38 68.8716 23.24 69.2316 22.96C69.5916 22.6667 69.8782 22.28 70.0916 21.8ZM83.2659 23.46C83.3326 23.4867 83.4393 23.52 83.5859 23.56C83.7326 23.6 83.8393 23.64 83.9059 23.68C83.9726 23.72 84.0059 23.78 84.0059 23.86C84.0193 24.18 83.8993 24.4467 83.6459 24.66C83.4059 24.86 83.1193 24.96 82.7859 24.96C82.2659 24.96 81.8593 24.82 81.5659 24.54C81.2726 24.26 81.0593 23.8333 80.9259 23.26C80.8726 23.0333 80.8459 22.72 80.8459 22.32C80.8459 22.0933 80.8593 21.7267 80.8859 21.22C80.9126 20.6867 80.9259 20.26 80.9259 19.94C80.9259 19.4733 80.7926 19.0667 80.5259 18.72C80.2726 18.36 79.9126 18.18 79.4459 18.18C79.1659 18.18 78.8726 18.2667 78.5659 18.44C78.2593 18.6 78.0459 18.8 77.9259 19.04C77.7259 19.4267 77.5859 19.8467 77.5059 20.3C77.3593 21.1 77.2859 21.9333 77.2859 22.8C77.2859 23.2133 77.2926 23.5333 77.3059 23.76C77.3059 23.8133 77.3059 23.92 77.3059 24.08C77.3193 24.2267 77.3059 24.3667 77.2659 24.5C77.2393 24.62 77.1859 24.7333 77.1059 24.84C77.0393 24.9067 76.9326 24.96 76.7859 25C76.6526 25.0533 76.5259 25.08 76.4059 25.08C76.2193 25.08 75.9859 25 75.7059 24.84C75.4259 24.68 75.2659 24.5 75.2259 24.3L75.2059 23.96C75.2059 23.84 75.2193 23.7 75.2459 23.54C75.4059 22.6067 75.4859 21.7933 75.4859 21.1C75.4859 20.7933 75.4793 20.5533 75.4659 20.38L75.4459 19.44C75.4459 19.12 75.3659 18.8133 75.2059 18.52C75.0459 18.2133 74.8593 18.06 74.6459 18.06C74.5793 18.06 74.4859 18.0867 74.3659 18.14C74.2459 18.18 74.1459 18.2 74.0659 18.2C73.9326 18.2 73.7859 18.1333 73.6259 18C73.4793 17.8667 73.4059 17.7267 73.4059 17.58C73.4059 17.3 73.4993 17.0733 73.6859 16.9C73.8859 16.74 74.0793 16.6133 74.2659 16.52C74.4659 16.4267 74.6926 16.38 74.9459 16.38C75.1593 16.38 75.3326 16.4 75.4659 16.44C75.5993 16.48 75.7793 16.5667 76.0059 16.7C76.1259 16.7667 76.2659 16.9133 76.4259 17.14C76.5859 17.3667 76.7193 17.6867 76.8259 18.1C77.1726 17.46 77.5993 17.0133 78.1059 16.76C78.6259 16.4933 79.2859 16.36 80.0859 16.36C80.3926 16.36 80.7193 16.46 81.0659 16.66C81.4259 16.86 81.7326 17.0933 81.9859 17.36C82.2259 17.6533 82.4259 18.02 82.5859 18.46C82.7459 18.8867 82.8259 19.2733 82.8259 19.62C82.8259 19.82 82.8126 20.1467 82.7859 20.6C82.7459 20.96 82.7259 21.34 82.7259 21.74C82.7259 22.6733 82.9059 23.2467 83.2659 23.46ZM85.4545 18.04C85.2679 18.0133 85.1145 17.94 84.9945 17.82C84.8879 17.6867 84.8345 17.5267 84.8345 17.34C84.8345 17.1 84.9279 16.9 85.1145 16.74C85.1545 16.7 85.2212 16.6667 85.3145 16.64C85.4079 16.6 85.4812 16.5667 85.5345 16.54C85.8279 16.4467 86.0145 16.3733 86.0945 16.32C86.4012 16.1333 86.6079 15.8267 86.7145 15.4C86.8212 14.8933 86.8879 14.5467 86.9145 14.36C86.9412 14.0667 87.0345 13.8467 87.1945 13.7C87.3679 13.54 87.5812 13.46 87.8345 13.46C88.1679 13.46 88.4012 13.5467 88.5345 13.72C88.6679 13.8933 88.7345 14.2133 88.7345 14.68C88.7345 15.2933 88.5879 15.8733 88.2945 16.42C88.4812 16.42 88.7879 16.4067 89.2145 16.38C89.8545 16.3533 90.3012 16.34 90.5545 16.34C90.7812 16.34 90.9745 16.4 91.1345 16.52C91.3079 16.6267 91.3945 16.7867 91.3945 17C91.3945 17.5067 91.1612 17.8067 90.6945 17.9C90.2679 18.02 89.4945 18.0933 88.3745 18.12C88.2812 19.4267 88.2345 20.46 88.2345 21.22C88.2345 21.6867 88.2545 22.02 88.2945 22.22C88.3745 22.6333 88.5079 22.94 88.6945 23.14C88.8945 23.3267 89.1879 23.42 89.5745 23.42C89.7612 23.42 90.0412 23.3733 90.4145 23.28C90.6412 23.2133 90.8212 23.18 90.9545 23.18C91.1279 23.18 91.2612 23.24 91.3545 23.36C91.4479 23.48 91.4945 23.64 91.4945 23.84C91.4945 24.2 91.2612 24.5 90.7945 24.74C90.3279 24.9667 89.7745 25.08 89.1345 25.08C88.7345 25.08 88.3412 24.9867 87.9545 24.8C87.5679 24.6 87.2412 24.36 86.9745 24.08C86.9212 24.0533 86.8412 23.9067 86.7345 23.64C86.6412 23.3733 86.5479 23.08 86.4545 22.76C86.4145 22.6 86.3945 22.2133 86.3945 21.6C86.3945 21.0133 86.4345 20 86.5145 18.56L86.5345 18.12C86.4412 18.12 86.2679 18.1133 86.0145 18.1C85.7612 18.0733 85.5745 18.0533 85.4545 18.04ZM100.535 25.08C100.082 25.08 99.735 25.0133 99.495 24.88C99.255 24.7333 98.995 24.4667 98.715 24.08C98.3683 24.3867 97.8483 24.6333 97.155 24.82C96.475 25.0067 95.8883 25.1 95.395 25.1C94.5817 25.1 93.9217 24.88 93.415 24.44C92.9217 23.9867 92.675 23.3267 92.675 22.46C92.675 22.0867 92.775 21.7467 92.975 21.44C93.1883 21.12 93.4617 20.84 93.795 20.6C94.1683 20.3467 94.6083 20.1467 95.115 20C95.635 19.8533 96.1083 19.78 96.535 19.78C97.255 19.78 97.895 19.8467 98.455 19.98V19.96C98.455 19.24 98.275 18.7467 97.915 18.48C97.5683 18.2 97.0083 18.06 96.235 18.06C95.7417 18.06 95.315 18.28 94.955 18.72C94.8217 18.8933 94.5417 18.98 94.115 18.98C93.9017 18.98 93.7417 18.8933 93.635 18.72C93.5417 18.5333 93.495 18.3467 93.495 18.16C93.495 17.7733 93.655 17.44 93.975 17.16C94.3083 16.88 94.7083 16.6733 95.175 16.54C95.6417 16.3933 96.075 16.32 96.475 16.32C96.8617 16.32 97.3217 16.4 97.855 16.56C98.3883 16.72 98.8217 16.9333 99.155 17.2C99.555 17.5467 99.8617 17.9533 100.075 18.42C100.302 18.8733 100.415 19.3733 100.415 19.92C100.415 20.0933 100.402 20.3533 100.375 20.7C100.348 21.1 100.335 21.4267 100.335 21.68C100.335 21.8 100.322 21.9533 100.295 22.14C100.268 22.38 100.255 22.58 100.255 22.74C100.255 22.9133 100.308 23.08 100.415 23.24C100.522 23.4 100.668 23.5333 100.855 23.64C101.028 23.7333 101.142 23.8333 101.195 23.94C101.248 24.0467 101.275 24.1667 101.275 24.3C101.275 24.4333 101.188 24.6 101.015 24.8C100.855 24.9867 100.695 25.08 100.535 25.08ZM96.535 21.26C96.015 21.26 95.555 21.36 95.155 21.56C94.755 21.76 94.555 22.1133 94.555 22.62C94.555 22.8733 94.6417 23.0867 94.815 23.26C95.0017 23.4333 95.2017 23.52 95.415 23.52C95.9883 23.52 96.4683 23.46 96.855 23.34C97.2417 23.22 97.7083 23 98.255 22.68C98.3217 22.4667 98.3617 22.1667 98.375 21.78C98.375 21.6333 98.3817 21.52 98.395 21.44C97.675 21.32 97.055 21.26 96.535 21.26ZM109.959 18.32C109.959 18.6 109.899 18.8133 109.779 18.96C109.672 19.1067 109.492 19.18 109.239 19.18C109.052 19.18 108.892 19.1333 108.759 19.04C108.639 18.9467 108.479 18.7867 108.279 18.56C108.119 18.3867 107.932 18.2467 107.719 18.14C107.519 18.0333 107.339 17.98 107.179 17.98C106.365 17.98 105.779 18.1533 105.419 18.5C105.192 18.74 105.005 19.06 104.859 19.46C104.712 19.8467 104.639 20.2467 104.639 20.66C104.639 21.26 104.725 21.74 104.899 22.1C105.072 22.46 105.379 22.7667 105.819 23.02C105.979 23.1133 106.205 23.1933 106.499 23.26C106.792 23.3133 107.032 23.34 107.219 23.34C107.472 23.34 107.739 23.2733 108.019 23.14C108.299 22.9933 108.539 22.8067 108.739 22.58C108.992 22.2867 109.299 22.14 109.659 22.14C109.805 22.14 109.972 22.2133 110.159 22.36C110.359 22.5067 110.459 22.68 110.459 22.88C110.459 23.28 110.265 23.6533 109.879 24C109.505 24.3333 109.045 24.6 108.499 24.8C107.952 24.9867 107.445 25.08 106.979 25.08C106.192 25.08 105.459 24.9 104.779 24.54C104.112 24.18 103.579 23.6867 103.179 23.06C102.779 22.42 102.579 21.7 102.579 20.9C102.579 20.2067 102.705 19.5333 102.959 18.88C103.225 18.2267 103.579 17.6933 104.019 17.28C104.379 16.9467 104.825 16.7 105.359 16.54C105.892 16.38 106.452 16.3 107.039 16.3C107.452 16.3 107.879 16.38 108.319 16.54C108.759 16.7 109.112 16.9133 109.379 17.18C109.765 17.5667 109.959 17.9467 109.959 18.32ZM112.154 18.08C111.967 18.0533 111.814 17.9733 111.694 17.84C111.587 17.7067 111.534 17.5467 111.534 17.36C111.534 17.2667 111.554 17.1667 111.594 17.06C111.647 16.9533 111.72 16.86 111.814 16.78C111.987 16.6067 112.454 16.52 113.214 16.52C113.32 16 113.374 15.4733 113.374 14.94C113.374 14.74 113.367 14.5667 113.354 14.42C113.34 14.2733 113.334 14.16 113.334 14.08C113.334 13.7867 113.44 13.5667 113.654 13.42C113.88 13.2733 114.134 13.2 114.414 13.2C114.76 13.2 114.994 13.2867 115.114 13.46C115.247 13.6333 115.314 13.9533 115.314 14.42C115.314 15.1133 115.254 15.7933 115.134 16.46C115.347 16.46 115.64 16.4467 116.014 16.42C116.52 16.3933 116.887 16.38 117.114 16.38C117.34 16.38 117.534 16.44 117.694 16.56C117.867 16.6667 117.954 16.82 117.954 17.02C117.954 17.54 117.72 17.8467 117.254 17.94C116.76 18.06 115.994 18.1333 114.954 18.16C114.914 18.68 114.894 19.2467 114.894 19.86C114.894 20.82 114.954 21.6067 115.074 22.22C115.154 22.6467 115.287 22.96 115.474 23.16C115.674 23.3467 115.967 23.44 116.354 23.44C116.58 23.44 116.814 23.38 117.054 23.26C117.214 23.1667 117.36 23.12 117.494 23.12C117.68 23.12 117.814 23.18 117.894 23.3C117.987 23.42 118.034 23.58 118.034 23.78C118.034 24.1533 117.834 24.4667 117.434 24.72C117.034 24.96 116.52 25.08 115.894 25.08C115.507 25.08 115.114 24.9867 114.714 24.8C114.327 24.6133 114 24.38 113.734 24.1C113.694 24.06 113.62 23.9067 113.514 23.64C113.407 23.3733 113.314 23.0867 113.234 22.78C113.1 22.1533 113.034 21.2733 113.034 20.14C113.034 19.6467 113.06 18.9867 113.114 18.16L112.154 18.08ZM126.645 13.4C126.645 13.7867 126.632 14.3 126.605 14.94L126.585 16.24C126.585 17.5067 126.679 18.5667 126.865 19.42C127.132 20.62 127.532 21.5467 128.065 22.2C128.559 22.7733 129.165 23.06 129.885 23.06C130.445 23.06 130.945 22.8933 131.385 22.56C131.825 22.2133 132.165 21.7867 132.405 21.28C132.805 20.4533 133.005 19.4333 133.005 18.22C133.005 17.4867 132.959 16.62 132.865 15.62C132.785 14.5 132.745 13.66 132.745 13.1C132.745 12.8067 132.919 12.62 133.265 12.54C133.612 12.4467 133.972 12.4 134.345 12.4C134.479 12.4 134.632 12.4867 134.805 12.66C134.979 12.8333 135.065 13.02 135.065 13.22C135.065 13.62 135.045 14 135.005 14.36C134.979 14.76 134.965 15.04 134.965 15.2C134.965 15.7067 134.992 16.4133 135.045 17.32C135.059 17.5467 135.072 17.82 135.085 18.14C135.099 18.46 135.105 18.8267 135.105 19.24C135.105 20.1467 134.885 21.0533 134.445 21.96C134.019 22.8533 133.419 23.5933 132.645 24.18C131.872 24.7533 130.999 25.04 130.025 25.04C128.532 25.04 127.365 24.56 126.525 23.6C125.685 22.6267 125.112 21.3733 124.805 19.84C124.632 18.96 124.519 18.04 124.465 17.08C124.425 16.12 124.405 14.8333 124.405 13.22C124.405 13.0067 124.505 12.8067 124.705 12.62C124.919 12.4333 125.145 12.34 125.385 12.34C126.225 12.34 126.645 12.6933 126.645 13.4ZM143.027 20.68C143.134 20.7467 143.341 20.8733 143.647 21.06C143.967 21.2333 144.181 21.44 144.287 21.68C144.394 21.92 144.447 22.2533 144.447 22.68C144.447 23.16 144.307 23.5867 144.027 23.96C143.747 24.32 143.387 24.6 142.947 24.8C142.641 24.9333 142.307 25.0133 141.947 25.04C141.601 25.0667 141.181 25.08 140.687 25.08C140.421 25.08 140.074 25.04 139.647 24.96C139.234 24.88 138.947 24.8067 138.787 24.74C138.361 24.5 138.001 24.22 137.707 23.9C137.414 23.58 137.267 23.2533 137.267 22.92C137.267 22.6533 137.354 22.44 137.527 22.28C137.701 22.12 137.927 22.04 138.207 22.04C138.354 22.04 138.494 22.08 138.627 22.16C138.774 22.2267 138.874 22.3067 138.927 22.4C139.074 22.7467 139.321 23.0067 139.667 23.18C140.014 23.3533 140.367 23.44 140.727 23.44C141.994 23.44 142.627 23.2133 142.627 22.76C142.627 22.64 142.594 22.5467 142.527 22.48C142.474 22.4 142.394 22.32 142.287 22.24C142.114 22.12 141.867 21.9933 141.547 21.86C141.241 21.7267 140.967 21.6267 140.727 21.56C140.181 21.44 139.647 21.26 139.127 21.02C138.647 20.78 138.254 20.4667 137.947 20.08C137.641 19.68 137.487 19.1933 137.487 18.62C137.487 18.2733 137.614 17.9333 137.867 17.6C138.134 17.2533 138.441 16.9933 138.787 16.82C139.027 16.7267 139.421 16.6267 139.967 16.52C140.514 16.4133 140.887 16.36 141.087 16.36C141.394 16.36 141.727 16.3933 142.087 16.46C142.447 16.5133 142.721 16.6067 142.907 16.74C143.267 16.9533 143.561 17.18 143.787 17.42C144.014 17.6467 144.127 17.9067 144.127 18.2C144.127 18.3467 144.094 18.5067 144.027 18.68C143.961 18.84 143.881 18.94 143.787 18.98C143.587 19.0733 143.354 19.12 143.087 19.12C142.967 19.12 142.867 19.0867 142.787 19.02C142.721 18.9533 142.627 18.8467 142.507 18.7C142.361 18.4733 142.221 18.34 142.087 18.3C141.927 18.26 141.694 18.2133 141.387 18.16C141.081 18.0933 140.874 18.06 140.767 18.06C140.434 18.06 140.114 18.1267 139.807 18.26C139.514 18.3933 139.367 18.5733 139.367 18.8C139.367 19.0667 139.587 19.2933 140.027 19.48C140.307 19.6133 140.614 19.7267 140.947 19.82C141.294 19.9133 141.507 19.9733 141.587 20C141.774 20.04 142.014 20.1333 142.307 20.28C142.614 20.4267 142.854 20.56 143.027 20.68Z" fill="black"/>
<rect width="35" height="35" rx="7" fill="#0071B5"/>
<path d="M18 13.7422C18.4315 13.7422 18.7812 13.3924 18.7812 12.9609C18.7812 12.5295 18.4315 12.1797 18 12.1797C17.5685 12.1797 17.2188 12.5295 17.2188 12.9609C17.2188 13.3924 17.5685 13.7422 18 13.7422Z" fill="white"/>
<path d="M25.0711 10.9289C23.1823 9.0402 20.6711 8 18 8C15.3289 8 12.8177 9.0402 10.9289 10.9289C9.0402 12.8177 8 15.3289 8 18C8 20.6711 9.0402 23.1823 10.9289 25.0711C12.8177 26.9598 15.3289 28 18 28C19.8286 28 21.6179 27.5016 23.1743 26.5589C23.5433 26.3353 23.6612 25.8549 23.4377 25.4859C23.2141 25.1168 22.7338 24.9989 22.3647 25.2224C21.0525 26.0173 19.5432 26.4375 18 26.4375C13.3475 26.4375 9.5625 22.6525 9.5625 18C9.5625 13.3475 13.3475 9.5625 18 9.5625C22.6525 9.5625 26.4375 13.3475 26.4375 18C26.4375 19.6636 25.9428 21.283 25.0068 22.683C24.767 23.0416 24.8633 23.5268 25.222 23.7666C25.5807 24.0064 26.0659 23.9101 26.3057 23.5514C27.4141 21.8935 28 19.9738 28 18C28 15.3289 26.9598 12.8177 25.0711 10.9289Z" fill="white"/>
<path d="M18 15.3047C17.5685 15.3047 17.2188 15.6545 17.2188 16.0859V23.0391C17.2188 23.4705 17.5685 23.8203 18 23.8203C18.4315 23.8203 18.7812 23.4705 18.7812 23.0391V16.0859C18.7812 15.6545 18.4315 15.3047 18 15.3047Z" fill="white"/>
</svg>
