<svg width="25" height="25" viewBox="0 0 25 25" fill="none" xmlns="http://www.w3.org/2000/svg">
<path d="M10.0006 18.125L17.5006 12.5L10.0006 6.875V18.125Z" fill="black"/>
<path d="M12.5 0C5.59376 0 0 5.59378 0 12.5C0 19.4062 5.59376 25 12.5 25C19.4062 25 25 19.4063 25 12.5C25 5.59372 19.4062 0 12.5 0ZM12.5 22.5C6.98747 22.5 2.49996 18.0125 2.49996 12.5C2.49996 6.98749 6.98747 2.50002 12.5 2.50002C18.0125 2.50002 22.5 6.98749 22.5 12.5C22.5 18.0125 18.0125 22.5 12.5 22.5Z" fill="black"/>
</svg>
