<svg width="121" height="63" viewBox="0 0 121 63" fill="none" xmlns="http://www.w3.org/2000/svg">
<g filter="url(#filter0_d)">
<rect x="4" width="113" height="55" rx="27.5" fill="#014C79"/>
</g>
<path d="M35.8312 33.38C37.2712 33.38 37.9912 32.804 37.9912 31.652C37.9912 31.052 37.6732 30.608 37.0372 30.32C36.7012 30.152 36.2632 29.996 35.7232 29.852C35.1952 29.708 34.7512 29.564 34.3912 29.42C34.0432 29.264 33.6892 29.054 33.3292 28.79C32.6212 28.262 32.2672 27.452 32.2672 26.36C32.2672 25.256 32.6452 24.392 33.4012 23.768C34.1692 23.132 35.1652 22.814 36.3892 22.814C37.6252 22.814 38.7712 23.06 39.8272 23.552V26.252L37.9912 26.378V25.334C37.9912 25.154 37.9672 25.022 37.9192 24.938C37.7872 24.71 37.3612 24.596 36.6412 24.596C35.9332 24.596 35.4052 24.722 35.0572 24.974C34.7212 25.226 34.5532 25.616 34.5532 26.144C34.5532 26.528 34.6972 26.864 34.9852 27.152C35.1772 27.344 35.4592 27.506 35.8312 27.638C36.2152 27.758 36.6172 27.884 37.0372 28.016C37.4692 28.148 37.8472 28.292 38.1712 28.448C38.5072 28.604 38.8552 28.82 39.2152 29.096C39.9472 29.636 40.3132 30.47 40.3132 31.598C40.3132 32.726 39.9052 33.614 39.0892 34.262C38.2852 34.91 37.2172 35.234 35.8852 35.234C34.5652 35.234 33.3772 34.988 32.3212 34.496V31.652L34.1572 31.526V32.624C34.1572 32.804 34.1812 32.936 34.2292 33.02C34.2772 33.104 34.4212 33.188 34.6612 33.272C34.9132 33.344 35.3032 33.38 35.8312 33.38ZM44.4161 25.946V33.506L45.4421 33.56V35H41.1581V33.632L41.7521 33.578C42.1001 33.542 42.2741 33.35 42.2741 33.002V27.998C42.2741 27.794 42.2381 27.656 42.1661 27.584C42.1061 27.512 41.9921 27.476 41.8241 27.476L41.1941 27.44V25.946H44.4161ZM42.1481 24.398C41.8961 24.146 41.7701 23.828 41.7701 23.444C41.7701 23.06 41.8961 22.742 42.1481 22.49C42.4001 22.226 42.7301 22.094 43.1381 22.094C43.5461 22.094 43.8761 22.226 44.1281 22.49C44.3921 22.742 44.5241 23.06 44.5241 23.444C44.5241 23.828 44.3921 24.146 44.1281 24.398C43.8761 24.638 43.5461 24.758 43.1381 24.758C42.7301 24.758 42.4001 24.638 42.1481 24.398ZM54.161 34.982C54.053 36.314 53.669 37.292 53.009 37.916C52.349 38.54 51.317 38.852 49.913 38.852C48.509 38.852 47.411 38.654 46.619 38.258V35.756L48.329 35.612V36.476C48.329 36.8 48.479 37.016 48.779 37.124C49.079 37.244 49.493 37.304 50.021 37.304C50.789 37.304 51.329 37.07 51.641 36.602C51.953 36.146 52.109 35.498 52.109 34.658V33.668C51.533 34.34 50.735 34.676 49.715 34.676C49.091 34.676 48.539 34.556 48.059 34.316C47.591 34.076 47.225 33.752 46.961 33.344C46.445 32.528 46.187 31.568 46.187 30.464C46.187 28.892 46.613 27.704 47.465 26.9C48.317 26.084 49.451 25.676 50.867 25.676C52.043 25.676 53.153 25.898 54.197 26.342V33.02C54.197 34.04 54.185 34.694 54.161 34.982ZM52.109 31.328V27.458C51.689 27.314 51.209 27.242 50.669 27.242C49.937 27.242 49.373 27.512 48.977 28.052C48.593 28.592 48.401 29.324 48.401 30.248C48.401 32.144 49.025 33.092 50.273 33.092C50.789 33.092 51.221 32.936 51.569 32.624C51.929 32.3 52.109 31.868 52.109 31.328ZM55.5006 27.386V25.946H58.5426V27.116C58.8546 26.672 59.2686 26.324 59.7846 26.072C60.3006 25.808 60.8586 25.676 61.4586 25.676C62.3706 25.676 63.0726 25.94 63.5646 26.468C64.0686 26.984 64.3206 27.764 64.3206 28.808V33.506L65.3466 33.56V35H61.0626V33.632L61.6566 33.578C61.8366 33.554 61.9686 33.506 62.0526 33.434C62.1366 33.35 62.1786 33.2 62.1786 32.984V29.276C62.1786 28.616 62.0766 28.13 61.8726 27.818C61.6686 27.494 61.2786 27.332 60.7026 27.332C60.1386 27.332 59.6886 27.512 59.3526 27.872C59.0166 28.232 58.8486 28.658 58.8486 29.15V33.506L59.8746 33.56V35H55.5906V33.632L56.1846 33.578C56.3646 33.554 56.4966 33.506 56.5806 33.434C56.6646 33.35 56.7066 33.2 56.7066 32.984V27.998C56.7066 27.638 56.5566 27.452 56.2566 27.44L55.5006 27.386ZM72.3625 25.136V31.112C72.3625 31.952 72.5605 32.546 72.9565 32.894C73.3645 33.23 73.9405 33.398 74.6845 33.398C75.4405 33.398 76.0225 33.212 76.4305 32.84C76.8505 32.468 77.0605 31.922 77.0605 31.202V24.614L76.0165 24.56V23.03H80.2825V24.488L79.6885 24.542C79.3405 24.578 79.1665 24.758 79.1665 25.082V31.508C79.1665 32.672 78.7585 33.584 77.9425 34.244C77.1265 34.904 75.9985 35.234 74.5585 35.234C73.1185 35.234 72.0265 34.916 71.2825 34.28C70.5505 33.632 70.1845 32.612 70.1845 31.22V24.614L69.1405 24.56V23.03H73.4965V24.488L72.9025 24.542C72.7105 24.566 72.5725 24.62 72.4885 24.704C72.4045 24.776 72.3625 24.92 72.3625 25.136ZM81.8784 36.71V27.998C81.8784 27.794 81.8424 27.656 81.7704 27.584C81.7104 27.5 81.5964 27.458 81.4284 27.458L80.6724 27.404V25.946H83.7144V27.116C83.9064 26.756 84.2544 26.426 84.7584 26.126C85.2624 25.826 85.8624 25.676 86.5584 25.676C88.7304 25.676 89.8164 27.2 89.8164 30.248C89.8164 31.868 89.4624 33.11 88.7544 33.974C88.0464 34.838 87.0864 35.27 85.8744 35.27C85.1544 35.27 84.5124 35.096 83.9484 34.748V37.232L85.4064 37.304V38.726H80.7624V37.358L81.3564 37.304C81.5364 37.28 81.6684 37.226 81.7524 37.142C81.8364 37.07 81.8784 36.926 81.8784 36.71ZM87.5844 30.428C87.5844 28.424 86.9784 27.422 85.7664 27.422C85.2624 27.422 84.8304 27.578 84.4704 27.89C84.1224 28.19 83.9484 28.55 83.9484 28.97V33.11C84.4044 33.41 84.9564 33.56 85.6044 33.56C86.2644 33.56 86.7564 33.26 87.0804 32.66C87.4164 32.06 87.5844 31.316 87.5844 30.428Z" fill="white"/>
<defs>
<filter id="filter0_d" x="0" y="0" width="121" height="63" filterUnits="userSpaceOnUse" color-interpolation-filters="sRGB">
<feFlood flood-opacity="0" result="BackgroundImageFix"/>
<feColorMatrix in="SourceAlpha" type="matrix" values="0 0 0 0 0 0 0 0 0 0 0 0 0 0 0 0 0 0 127 0"/>
<feOffset dy="4"/>
<feGaussianBlur stdDeviation="2"/>
<feColorMatrix type="matrix" values="0 0 0 0 0 0 0 0 0 0 0 0 0 0 0 0 0 0 0.25 0"/>
<feBlend mode="normal" in2="BackgroundImageFix" result="effect1_dropShadow"/>
<feBlend mode="normal" in="SourceGraphic" in2="effect1_dropShadow" result="shape"/>
</filter>
</defs>
</svg>
