<svg width="331" height="47" viewBox="0 0 331 47" fill="none" xmlns="http://www.w3.org/2000/svg">
<g filter="url(#filter0_d)">
<rect x="4" width="323" height="39" rx="8" fill="#F44336"/>
<path d="M117.508 17.615C117.398 17.425 116.988 17.33 116.278 17.33C115.348 17.33 114.643 17.645 114.163 18.275C113.683 18.905 113.443 19.815 113.443 21.005C113.443 23.475 114.368 24.71 116.218 24.71C116.248 24.71 116.378 24.71 116.608 24.71C116.848 24.71 117.073 24.68 117.283 24.62C117.493 24.55 117.618 24.48 117.658 24.41C117.698 24.34 117.718 24.23 117.718 24.08V22.88L119.248 22.985V25.58C118.468 25.99 117.478 26.195 116.278 26.195C114.748 26.195 113.578 25.765 112.768 24.905C111.968 24.045 111.568 22.765 111.568 21.065C111.568 20.125 111.703 19.305 111.973 18.605C112.243 17.905 112.608 17.36 113.068 16.97C113.968 16.22 115.038 15.845 116.278 15.845C117.278 15.845 118.218 16.05 119.098 16.46V19.01L117.568 19.115V17.945C117.568 17.795 117.548 17.685 117.508 17.615ZM123.603 24.905C124.693 24.905 125.238 24.025 125.238 22.265C125.238 21.375 125.113 20.7 124.863 20.24C124.623 19.78 124.213 19.55 123.633 19.55C123.063 19.55 122.643 19.77 122.373 20.21C122.103 20.65 121.968 21.25 121.968 22.01C121.968 23.42 122.228 24.305 122.748 24.665C122.978 24.825 123.263 24.905 123.603 24.905ZM120.153 22.22C120.153 21.48 120.263 20.84 120.483 20.3C120.703 19.75 120.998 19.33 121.368 19.04C122.078 18.5 122.863 18.23 123.723 18.23C124.323 18.23 124.828 18.33 125.238 18.53C125.658 18.72 125.983 18.945 126.213 19.205C126.453 19.455 126.653 19.825 126.813 20.315C126.983 20.795 127.068 21.365 127.068 22.025C127.068 23.405 126.733 24.45 126.063 25.16C125.393 25.87 124.533 26.225 123.483 26.225C122.443 26.225 121.628 25.89 121.038 25.22C120.448 24.54 120.153 23.54 120.153 22.22ZM127.655 19.655V18.455H130.19V19.43C130.45 19.06 130.795 18.77 131.225 18.56C131.655 18.34 132.12 18.23 132.62 18.23C133.38 18.23 133.965 18.45 134.375 18.89C134.795 19.32 135.005 19.97 135.005 20.84V24.755L135.86 24.8V26H132.29V24.86L132.785 24.815C132.935 24.795 133.045 24.755 133.115 24.695C133.185 24.625 133.22 24.5 133.22 24.32V21.23C133.22 20.68 133.135 20.275 132.965 20.015C132.795 19.745 132.47 19.61 131.99 19.61C131.52 19.61 131.145 19.76 130.865 20.06C130.585 20.36 130.445 20.715 130.445 21.125V24.755L131.3 24.8V26H127.73V24.86L128.225 24.815C128.375 24.795 128.485 24.755 128.555 24.695C128.625 24.625 128.66 24.5 128.66 24.32V20.165C128.66 19.865 128.535 19.71 128.285 19.7L127.655 19.655ZM137.47 16.865H138.445V18.455H140.44L140.29 19.715H138.445V23.66C138.445 24.1 138.525 24.41 138.685 24.59C138.845 24.76 139.09 24.845 139.42 24.845C139.76 24.845 140.1 24.74 140.44 24.53L140.89 25.685C140.39 26.035 139.755 26.21 138.985 26.21C138.535 26.21 138.155 26.15 137.845 26.03C137.535 25.92 137.305 25.795 137.155 25.655C137.005 25.515 136.89 25.31 136.81 25.04C136.73 24.77 136.685 24.56 136.675 24.41C136.665 24.25 136.66 24.02 136.66 23.72V19.715H135.595L135.745 18.62C136.215 18.58 136.57 18.415 136.81 18.125C137.05 17.825 137.27 17.405 137.47 16.865ZM143.841 18.455V24.755L144.696 24.8V26H141.126V24.86L141.621 24.815C141.911 24.785 142.056 24.625 142.056 24.335V20.165C142.056 19.995 142.026 19.88 141.966 19.82C141.916 19.76 141.821 19.73 141.681 19.73L141.156 19.7V18.455H143.841ZM141.951 17.165C141.741 16.955 141.636 16.69 141.636 16.37C141.636 16.05 141.741 15.785 141.951 15.575C142.161 15.355 142.436 15.245 142.776 15.245C143.116 15.245 143.391 15.355 143.601 15.575C143.821 15.785 143.931 16.05 143.931 16.37C143.931 16.69 143.821 16.955 143.601 17.165C143.391 17.365 143.116 17.465 142.776 17.465C142.436 17.465 142.161 17.365 141.951 17.165ZM145.141 19.655V18.455H147.676V19.43C147.936 19.06 148.281 18.77 148.711 18.56C149.141 18.34 149.606 18.23 150.106 18.23C150.866 18.23 151.451 18.45 151.861 18.89C152.281 19.32 152.491 19.97 152.491 20.84V24.755L153.346 24.8V26H149.776V24.86L150.271 24.815C150.421 24.795 150.531 24.755 150.601 24.695C150.671 24.625 150.706 24.5 150.706 24.32V21.23C150.706 20.68 150.621 20.275 150.451 20.015C150.281 19.745 149.956 19.61 149.476 19.61C149.006 19.61 148.631 19.76 148.351 20.06C148.071 20.36 147.931 20.715 147.931 21.125V24.755L148.786 24.8V26H145.216V24.86L145.711 24.815C145.861 24.795 145.971 24.755 146.041 24.695C146.111 24.625 146.146 24.5 146.146 24.32V20.165C146.146 19.865 146.021 19.71 145.771 19.7L145.141 19.655ZM161.314 24.815V26H158.884V25.025C158.334 25.805 157.524 26.195 156.454 26.195C154.904 26.195 154.129 25.33 154.129 23.6V20.135C154.129 19.865 154.004 19.725 153.754 19.715L153.274 19.685V18.455H155.914V23.21C155.914 23.74 155.989 24.14 156.139 24.41C156.289 24.68 156.599 24.815 157.069 24.815C157.539 24.815 157.914 24.67 158.194 24.38C158.484 24.09 158.629 23.74 158.629 23.33V20.165C158.629 20.005 158.599 19.895 158.539 19.835C158.489 19.765 158.394 19.725 158.254 19.715L157.774 19.685V18.455H160.414V24.335C160.414 24.495 160.439 24.605 160.489 24.665C160.539 24.715 160.639 24.75 160.789 24.77L161.314 24.815ZM165.658 18.23C166.408 18.23 167.003 18.415 167.443 18.785C167.883 19.145 168.103 19.655 168.103 20.315C168.103 20.755 168.008 21.145 167.818 21.485C167.628 21.815 167.393 22.075 167.113 22.265C166.833 22.455 166.493 22.61 166.093 22.73C165.423 22.93 164.668 23.03 163.828 23.03C163.858 23.56 164.023 23.99 164.323 24.32C164.623 24.64 165.083 24.8 165.703 24.8C166.323 24.8 166.943 24.58 167.563 24.14L168.133 25.355C167.933 25.535 167.593 25.72 167.113 25.91C166.643 26.1 166.103 26.195 165.493 26.195C164.273 26.195 163.378 25.86 162.808 25.19C162.238 24.51 161.953 23.58 161.953 22.4C161.953 21.22 162.278 20.23 162.928 19.43C163.578 18.63 164.488 18.23 165.658 18.23ZM164.968 21.665C165.338 21.595 165.678 21.45 165.988 21.23C166.298 21 166.453 20.73 166.453 20.42C166.453 19.81 166.153 19.505 165.553 19.505C164.993 19.505 164.563 19.73 164.263 20.18C163.963 20.62 163.798 21.15 163.768 21.77C164.208 21.76 164.608 21.725 164.968 21.665ZM176.46 18.755H177.915L179.475 24.335H179.505L180.525 19.7L179.76 19.655V18.455H182.775V19.61L182.28 19.64C182.08 19.66 181.945 19.78 181.875 20L180.45 26H178.29L177.06 21.53H177.015L175.74 26H173.535L172.02 20.015C171.97 19.875 171.915 19.78 171.855 19.73C171.805 19.68 171.715 19.65 171.585 19.64L171.15 19.61V18.455H174.585V19.655L173.745 19.7L174.78 24.305H174.81L176.46 18.755ZM185.801 18.455V24.755L186.656 24.8V26H183.086V24.86L183.581 24.815C183.871 24.785 184.016 24.625 184.016 24.335V20.165C184.016 19.995 183.986 19.88 183.926 19.82C183.876 19.76 183.781 19.73 183.641 19.73L183.116 19.7V18.455H185.801ZM183.911 17.165C183.701 16.955 183.596 16.69 183.596 16.37C183.596 16.05 183.701 15.785 183.911 15.575C184.121 15.355 184.396 15.245 184.736 15.245C185.076 15.245 185.351 15.355 185.561 15.575C185.781 15.785 185.891 16.05 185.891 16.37C185.891 16.69 185.781 16.955 185.561 17.165C185.351 17.365 185.076 17.465 184.736 17.465C184.396 17.465 184.121 17.365 183.911 17.165ZM188.856 16.865H189.831V18.455H191.826L191.676 19.715H189.831V23.66C189.831 24.1 189.911 24.41 190.071 24.59C190.231 24.76 190.476 24.845 190.806 24.845C191.146 24.845 191.486 24.74 191.826 24.53L192.276 25.685C191.776 26.035 191.141 26.21 190.371 26.21C189.921 26.21 189.541 26.15 189.231 26.03C188.921 25.92 188.691 25.795 188.541 25.655C188.391 25.515 188.276 25.31 188.196 25.04C188.116 24.77 188.071 24.56 188.061 24.41C188.051 24.25 188.046 24.02 188.046 23.72V19.715H186.981L187.131 18.62C187.601 18.58 187.956 18.415 188.196 18.125C188.436 17.825 188.656 17.405 188.856 16.865ZM193.427 24.32V17.015C193.427 16.855 193.397 16.745 193.337 16.685C193.287 16.625 193.192 16.59 193.052 16.58L192.527 16.55V15.305H195.197V19.34C195.717 18.6 196.447 18.23 197.387 18.23C198.147 18.23 198.732 18.45 199.142 18.89C199.562 19.32 199.772 19.97 199.772 20.84V24.755L200.627 24.8V26H197.057V24.86L197.552 24.815C197.702 24.795 197.812 24.755 197.882 24.695C197.952 24.625 197.987 24.5 197.987 24.32V21.23C197.987 20.71 197.902 20.31 197.732 20.03C197.572 19.75 197.252 19.61 196.772 19.61C196.302 19.61 195.922 19.76 195.632 20.06C195.352 20.35 195.212 20.705 195.212 21.125V24.755L196.067 24.8V26H192.497V24.86L192.992 24.815C193.142 24.795 193.252 24.755 193.322 24.695C193.392 24.625 193.427 24.5 193.427 24.32ZM211.807 22.505V25.22C210.877 25.86 209.722 26.18 208.342 26.18C206.962 26.18 205.882 25.75 205.102 24.89C204.332 24.02 203.947 22.735 203.947 21.035C203.947 20.285 204.042 19.61 204.232 19.01C204.432 18.41 204.687 17.915 204.997 17.525C205.317 17.135 205.687 16.81 206.107 16.55C206.907 16.08 207.812 15.845 208.822 15.845C209.842 15.845 210.792 16.05 211.672 16.46V19.01L210.142 19.115V17.945C210.142 17.795 210.122 17.685 210.082 17.615C209.972 17.425 209.517 17.33 208.717 17.33C206.787 17.33 205.822 18.525 205.822 20.915C205.822 23.435 206.692 24.695 208.432 24.695C209.122 24.695 209.652 24.575 210.022 24.335V22.1H210.007L208.852 22.055V20.78H212.587V21.98L212.242 22.01C212.082 22.03 211.967 22.075 211.897 22.145C211.837 22.205 211.807 22.325 211.807 22.505ZM216.568 24.905C217.658 24.905 218.203 24.025 218.203 22.265C218.203 21.375 218.078 20.7 217.828 20.24C217.588 19.78 217.178 19.55 216.598 19.55C216.028 19.55 215.608 19.77 215.338 20.21C215.068 20.65 214.933 21.25 214.933 22.01C214.933 23.42 215.193 24.305 215.713 24.665C215.943 24.825 216.228 24.905 216.568 24.905ZM213.118 22.22C213.118 21.48 213.228 20.84 213.448 20.3C213.668 19.75 213.963 19.33 214.333 19.04C215.043 18.5 215.828 18.23 216.688 18.23C217.288 18.23 217.793 18.33 218.203 18.53C218.623 18.72 218.948 18.945 219.178 19.205C219.418 19.455 219.618 19.825 219.778 20.315C219.948 20.795 220.033 21.365 220.033 22.025C220.033 23.405 219.698 24.45 219.028 25.16C218.358 25.87 217.498 26.225 216.448 26.225C215.408 26.225 214.593 25.89 214.003 25.22C213.413 24.54 213.118 23.54 213.118 22.22ZM224.16 24.905C225.25 24.905 225.795 24.025 225.795 22.265C225.795 21.375 225.67 20.7 225.42 20.24C225.18 19.78 224.77 19.55 224.19 19.55C223.62 19.55 223.2 19.77 222.93 20.21C222.66 20.65 222.525 21.25 222.525 22.01C222.525 23.42 222.785 24.305 223.305 24.665C223.535 24.825 223.82 24.905 224.16 24.905ZM220.71 22.22C220.71 21.48 220.82 20.84 221.04 20.3C221.26 19.75 221.555 19.33 221.925 19.04C222.635 18.5 223.42 18.23 224.28 18.23C224.88 18.23 225.385 18.33 225.795 18.53C226.215 18.72 226.54 18.945 226.77 19.205C227.01 19.455 227.21 19.825 227.37 20.315C227.54 20.795 227.625 21.365 227.625 22.025C227.625 23.405 227.29 24.45 226.62 25.16C225.95 25.87 225.09 26.225 224.04 26.225C223 26.225 222.185 25.89 221.595 25.22C221.005 24.54 220.71 23.54 220.71 22.22ZM234.976 25.985C234.886 27.095 234.566 27.91 234.016 28.43C233.466 28.95 232.606 29.21 231.436 29.21C230.266 29.21 229.351 29.045 228.691 28.715V26.63L230.116 26.51V27.23C230.116 27.5 230.241 27.68 230.491 27.77C230.741 27.87 231.086 27.92 231.526 27.92C232.166 27.92 232.616 27.725 232.876 27.335C233.136 26.955 233.266 26.415 233.266 25.715V24.89C232.786 25.45 232.121 25.73 231.271 25.73C230.751 25.73 230.291 25.63 229.891 25.43C229.501 25.23 229.196 24.96 228.976 24.62C228.546 23.94 228.331 23.14 228.331 22.22C228.331 20.91 228.686 19.92 229.396 19.25C230.106 18.57 231.051 18.23 232.231 18.23C233.211 18.23 234.136 18.415 235.006 18.785V24.35C235.006 25.2 234.996 25.745 234.976 25.985ZM233.266 22.94V19.715C232.916 19.595 232.516 19.535 232.066 19.535C231.456 19.535 230.986 19.76 230.656 20.21C230.336 20.66 230.176 21.27 230.176 22.04C230.176 23.62 230.696 24.41 231.736 24.41C232.166 24.41 232.526 24.28 232.816 24.02C233.116 23.75 233.266 23.39 233.266 22.94ZM238.812 15.305V24.755L239.667 24.8V26H236.097V24.86L236.592 24.815C236.882 24.785 237.027 24.625 237.027 24.335V16.94C237.027 16.72 236.902 16.6 236.652 16.58L236.127 16.55V15.305H238.812ZM244.026 18.23C244.776 18.23 245.371 18.415 245.811 18.785C246.251 19.145 246.471 19.655 246.471 20.315C246.471 20.755 246.376 21.145 246.186 21.485C245.996 21.815 245.761 22.075 245.481 22.265C245.201 22.455 244.861 22.61 244.461 22.73C243.791 22.93 243.036 23.03 242.196 23.03C242.226 23.56 242.391 23.99 242.691 24.32C242.991 24.64 243.451 24.8 244.071 24.8C244.691 24.8 245.311 24.58 245.931 24.14L246.501 25.355C246.301 25.535 245.961 25.72 245.481 25.91C245.011 26.1 244.471 26.195 243.861 26.195C242.641 26.195 241.746 25.86 241.176 25.19C240.606 24.51 240.321 23.58 240.321 22.4C240.321 21.22 240.646 20.23 241.296 19.43C241.946 18.63 242.856 18.23 244.026 18.23ZM243.336 21.665C243.706 21.595 244.046 21.45 244.356 21.23C244.666 21 244.821 20.73 244.821 20.42C244.821 19.81 244.521 19.505 243.921 19.505C243.361 19.505 242.931 19.73 242.631 20.18C242.331 20.62 242.166 21.15 242.136 21.77C242.576 21.76 242.976 21.725 243.336 21.665Z" fill="white"/>
<rect x="68" y="10" width="17.5538" height="18.8077" fill="white"/>
<path d="M68 10V29.6526C68.0272 29.6854 68.0544 29.7248 68.0884 29.7576H87.8376V10H68ZM76.8205 27.7884C71.992 27.7884 68.1156 24.0272 68.1156 19.3865C68.1156 11.9101 77.3033 8.3787 82.6487 13.1704L80.2888 15.3825C77.2693 12.5337 71.4003 14.6079 71.4003 19.3799C71.4003 25.852 80.9145 26.2918 81.7442 21.0603H76.8205V18.1722H85.0289C85.9606 22.872 82.8187 27.7884 76.8205 27.7884Z" fill="#F44336"/>
</g>
<defs>
<filter id="filter0_d" x="0" y="0" width="331" height="47" filterUnits="userSpaceOnUse" color-interpolation-filters="sRGB">
<feFlood flood-opacity="0" result="BackgroundImageFix"/>
<feColorMatrix in="SourceAlpha" type="matrix" values="0 0 0 0 0 0 0 0 0 0 0 0 0 0 0 0 0 0 127 0"/>
<feOffset dy="4"/>
<feGaussianBlur stdDeviation="2"/>
<feColorMatrix type="matrix" values="0 0 0 0 0 0 0 0 0 0 0 0 0 0 0 0 0 0 0.25 0"/>
<feBlend mode="normal" in2="BackgroundImageFix" result="effect1_dropShadow"/>
<feBlend mode="normal" in="SourceGraphic" in2="effect1_dropShadow" result="shape"/>
</filter>
</defs>
</svg>
