<svg width="331" height="47" viewBox="0 0 331 47" fill="none" xmlns="http://www.w3.org/2000/svg">
<g filter="url(#filter0_d)">
<rect x="4" width="323" height="39" rx="8" fill="#3B5998"/>
<path d="M116.267 17.615C116.157 17.425 115.747 17.33 115.037 17.33C114.107 17.33 113.402 17.645 112.922 18.275C112.442 18.905 112.202 19.815 112.202 21.005C112.202 23.475 113.127 24.71 114.977 24.71C115.007 24.71 115.137 24.71 115.367 24.71C115.607 24.71 115.832 24.68 116.042 24.62C116.252 24.55 116.377 24.48 116.417 24.41C116.457 24.34 116.477 24.23 116.477 24.08V22.88L118.007 22.985V25.58C117.227 25.99 116.237 26.195 115.037 26.195C113.507 26.195 112.337 25.765 111.527 24.905C110.727 24.045 110.327 22.765 110.327 21.065C110.327 20.125 110.462 19.305 110.732 18.605C111.002 17.905 111.367 17.36 111.827 16.97C112.727 16.22 113.797 15.845 115.037 15.845C116.037 15.845 116.977 16.05 117.857 16.46V19.01L116.327 19.115V17.945C116.327 17.795 116.307 17.685 116.267 17.615ZM122.362 24.905C123.452 24.905 123.997 24.025 123.997 22.265C123.997 21.375 123.872 20.7 123.622 20.24C123.382 19.78 122.972 19.55 122.392 19.55C121.822 19.55 121.402 19.77 121.132 20.21C120.862 20.65 120.727 21.25 120.727 22.01C120.727 23.42 120.987 24.305 121.507 24.665C121.737 24.825 122.022 24.905 122.362 24.905ZM118.912 22.22C118.912 21.48 119.022 20.84 119.242 20.3C119.462 19.75 119.757 19.33 120.127 19.04C120.837 18.5 121.622 18.23 122.482 18.23C123.082 18.23 123.587 18.33 123.997 18.53C124.417 18.72 124.742 18.945 124.972 19.205C125.212 19.455 125.412 19.825 125.572 20.315C125.742 20.795 125.827 21.365 125.827 22.025C125.827 23.405 125.492 24.45 124.822 25.16C124.152 25.87 123.292 26.225 122.242 26.225C121.202 26.225 120.387 25.89 119.797 25.22C119.207 24.54 118.912 23.54 118.912 22.22ZM126.413 19.655V18.455H128.948V19.43C129.208 19.06 129.553 18.77 129.983 18.56C130.413 18.34 130.878 18.23 131.378 18.23C132.138 18.23 132.723 18.45 133.133 18.89C133.553 19.32 133.763 19.97 133.763 20.84V24.755L134.618 24.8V26H131.048V24.86L131.543 24.815C131.693 24.795 131.803 24.755 131.873 24.695C131.943 24.625 131.978 24.5 131.978 24.32V21.23C131.978 20.68 131.893 20.275 131.723 20.015C131.553 19.745 131.228 19.61 130.748 19.61C130.278 19.61 129.903 19.76 129.623 20.06C129.343 20.36 129.203 20.715 129.203 21.125V24.755L130.058 24.8V26H126.488V24.86L126.983 24.815C127.133 24.795 127.243 24.755 127.313 24.695C127.383 24.625 127.418 24.5 127.418 24.32V20.165C127.418 19.865 127.293 19.71 127.043 19.7L126.413 19.655ZM136.228 16.865H137.203V18.455H139.198L139.048 19.715H137.203V23.66C137.203 24.1 137.283 24.41 137.443 24.59C137.603 24.76 137.848 24.845 138.178 24.845C138.518 24.845 138.858 24.74 139.198 24.53L139.648 25.685C139.148 26.035 138.513 26.21 137.743 26.21C137.293 26.21 136.913 26.15 136.603 26.03C136.293 25.92 136.063 25.795 135.913 25.655C135.763 25.515 135.648 25.31 135.568 25.04C135.488 24.77 135.443 24.56 135.433 24.41C135.423 24.25 135.418 24.02 135.418 23.72V19.715H134.353L134.503 18.62C134.973 18.58 135.328 18.415 135.568 18.125C135.808 17.825 136.028 17.405 136.228 16.865ZM142.599 18.455V24.755L143.454 24.8V26H139.884V24.86L140.379 24.815C140.669 24.785 140.814 24.625 140.814 24.335V20.165C140.814 19.995 140.784 19.88 140.724 19.82C140.674 19.76 140.579 19.73 140.439 19.73L139.914 19.7V18.455H142.599ZM140.709 17.165C140.499 16.955 140.394 16.69 140.394 16.37C140.394 16.05 140.499 15.785 140.709 15.575C140.919 15.355 141.194 15.245 141.534 15.245C141.874 15.245 142.149 15.355 142.359 15.575C142.579 15.785 142.689 16.05 142.689 16.37C142.689 16.69 142.579 16.955 142.359 17.165C142.149 17.365 141.874 17.465 141.534 17.465C141.194 17.465 140.919 17.365 140.709 17.165ZM143.899 19.655V18.455H146.434V19.43C146.694 19.06 147.039 18.77 147.469 18.56C147.899 18.34 148.364 18.23 148.864 18.23C149.624 18.23 150.209 18.45 150.619 18.89C151.039 19.32 151.249 19.97 151.249 20.84V24.755L152.104 24.8V26H148.534V24.86L149.029 24.815C149.179 24.795 149.289 24.755 149.359 24.695C149.429 24.625 149.464 24.5 149.464 24.32V21.23C149.464 20.68 149.379 20.275 149.209 20.015C149.039 19.745 148.714 19.61 148.234 19.61C147.764 19.61 147.389 19.76 147.109 20.06C146.829 20.36 146.689 20.715 146.689 21.125V24.755L147.544 24.8V26H143.974V24.86L144.469 24.815C144.619 24.795 144.729 24.755 144.799 24.695C144.869 24.625 144.904 24.5 144.904 24.32V20.165C144.904 19.865 144.779 19.71 144.529 19.7L143.899 19.655ZM160.073 24.815V26H157.643V25.025C157.093 25.805 156.283 26.195 155.213 26.195C153.663 26.195 152.888 25.33 152.888 23.6V20.135C152.888 19.865 152.763 19.725 152.513 19.715L152.033 19.685V18.455H154.673V23.21C154.673 23.74 154.748 24.14 154.898 24.41C155.048 24.68 155.358 24.815 155.828 24.815C156.298 24.815 156.673 24.67 156.953 24.38C157.243 24.09 157.388 23.74 157.388 23.33V20.165C157.388 20.005 157.358 19.895 157.298 19.835C157.248 19.765 157.153 19.725 157.013 19.715L156.533 19.685V18.455H159.173V24.335C159.173 24.495 159.198 24.605 159.248 24.665C159.298 24.715 159.398 24.75 159.548 24.77L160.073 24.815ZM164.417 18.23C165.167 18.23 165.762 18.415 166.202 18.785C166.642 19.145 166.862 19.655 166.862 20.315C166.862 20.755 166.767 21.145 166.577 21.485C166.387 21.815 166.152 22.075 165.872 22.265C165.592 22.455 165.252 22.61 164.852 22.73C164.182 22.93 163.427 23.03 162.587 23.03C162.617 23.56 162.782 23.99 163.082 24.32C163.382 24.64 163.842 24.8 164.462 24.8C165.082 24.8 165.702 24.58 166.322 24.14L166.892 25.355C166.692 25.535 166.352 25.72 165.872 25.91C165.402 26.1 164.862 26.195 164.252 26.195C163.032 26.195 162.137 25.86 161.567 25.19C160.997 24.51 160.712 23.58 160.712 22.4C160.712 21.22 161.037 20.23 161.687 19.43C162.337 18.63 163.247 18.23 164.417 18.23ZM163.727 21.665C164.097 21.595 164.437 21.45 164.747 21.23C165.057 21 165.212 20.73 165.212 20.42C165.212 19.81 164.912 19.505 164.312 19.505C163.752 19.505 163.322 19.73 163.022 20.18C162.722 20.62 162.557 21.15 162.527 21.77C162.967 21.76 163.367 21.725 163.727 21.665ZM175.219 18.755H176.674L178.234 24.335H178.264L179.284 19.7L178.519 19.655V18.455H181.534V19.61L181.039 19.64C180.839 19.66 180.704 19.78 180.634 20L179.209 26H177.049L175.819 21.53H175.774L174.499 26H172.294L170.779 20.015C170.729 19.875 170.674 19.78 170.614 19.73C170.564 19.68 170.474 19.65 170.344 19.64L169.909 19.61V18.455H173.344V19.655L172.504 19.7L173.539 24.305H173.569L175.219 18.755ZM184.559 18.455V24.755L185.414 24.8V26H181.844V24.86L182.339 24.815C182.629 24.785 182.774 24.625 182.774 24.335V20.165C182.774 19.995 182.744 19.88 182.684 19.82C182.634 19.76 182.539 19.73 182.399 19.73L181.874 19.7V18.455H184.559ZM182.669 17.165C182.459 16.955 182.354 16.69 182.354 16.37C182.354 16.05 182.459 15.785 182.669 15.575C182.879 15.355 183.154 15.245 183.494 15.245C183.834 15.245 184.109 15.355 184.319 15.575C184.539 15.785 184.649 16.05 184.649 16.37C184.649 16.69 184.539 16.955 184.319 17.165C184.109 17.365 183.834 17.465 183.494 17.465C183.154 17.465 182.879 17.365 182.669 17.165ZM187.614 16.865H188.589V18.455H190.584L190.434 19.715H188.589V23.66C188.589 24.1 188.669 24.41 188.829 24.59C188.989 24.76 189.234 24.845 189.564 24.845C189.904 24.845 190.244 24.74 190.584 24.53L191.034 25.685C190.534 26.035 189.899 26.21 189.129 26.21C188.679 26.21 188.299 26.15 187.989 26.03C187.679 25.92 187.449 25.795 187.299 25.655C187.149 25.515 187.034 25.31 186.954 25.04C186.874 24.77 186.829 24.56 186.819 24.41C186.809 24.25 186.804 24.02 186.804 23.72V19.715H185.739L185.889 18.62C186.359 18.58 186.714 18.415 186.954 18.125C187.194 17.825 187.414 17.405 187.614 16.865ZM192.185 24.32V17.015C192.185 16.855 192.155 16.745 192.095 16.685C192.045 16.625 191.95 16.59 191.81 16.58L191.285 16.55V15.305H193.955V19.34C194.475 18.6 195.205 18.23 196.145 18.23C196.905 18.23 197.49 18.45 197.9 18.89C198.32 19.32 198.53 19.97 198.53 20.84V24.755L199.385 24.8V26H195.815V24.86L196.31 24.815C196.46 24.795 196.57 24.755 196.64 24.695C196.71 24.625 196.745 24.5 196.745 24.32V21.23C196.745 20.71 196.66 20.31 196.49 20.03C196.33 19.75 196.01 19.61 195.53 19.61C195.06 19.61 194.68 19.76 194.39 20.06C194.11 20.35 193.97 20.705 193.97 21.125V24.755L194.825 24.8V26H191.255V24.86L191.75 24.815C191.9 24.795 192.01 24.755 192.08 24.695C192.15 24.625 192.185 24.5 192.185 24.32ZM202.616 26V24.785L203.111 24.74C203.401 24.71 203.546 24.57 203.546 24.32V17.345L202.691 17.3V16.025H209.936V18.515L208.406 18.62V18.02C208.406 17.85 208.381 17.73 208.331 17.66C208.281 17.59 208.161 17.555 207.971 17.555H205.376V20.21H209.066V21.74H205.376V24.68L206.711 24.725V26H202.616ZM217.147 18.755V24.335C217.147 24.495 217.172 24.605 217.222 24.665C217.282 24.725 217.382 24.76 217.522 24.77L218.002 24.8V26H215.617V25.13L215.572 25.115C215.072 25.835 214.387 26.195 213.517 26.195C212.497 26.195 211.742 25.87 211.252 25.22C210.762 24.57 210.517 23.68 210.517 22.55C210.517 21.19 210.847 20.13 211.507 19.37C212.167 18.61 213.157 18.23 214.477 18.23C215.327 18.23 216.217 18.405 217.147 18.755ZM215.407 23.615V19.73C215.127 19.6 214.742 19.535 214.252 19.535C213.582 19.535 213.097 19.805 212.797 20.345C212.497 20.885 212.347 21.6 212.347 22.49C212.347 24.11 212.867 24.92 213.907 24.92C214.347 24.92 214.707 24.79 214.987 24.53C215.267 24.26 215.407 23.955 215.407 23.615ZM220.404 22.145C220.404 22.995 220.564 23.655 220.884 24.125C221.204 24.595 221.664 24.83 222.264 24.83C222.874 24.83 223.474 24.615 224.064 24.185L224.709 25.34C223.999 25.92 223.109 26.21 222.039 26.21C220.969 26.21 220.124 25.875 219.504 25.205C218.894 24.525 218.589 23.525 218.589 22.205C218.589 20.885 218.939 19.895 219.639 19.235C220.349 18.565 221.144 18.23 222.024 18.23C222.914 18.23 223.739 18.435 224.499 18.845V20.795L223.119 20.9V20.18C223.119 19.91 223.019 19.745 222.819 19.685C222.629 19.615 222.429 19.58 222.219 19.58C221.009 19.58 220.404 20.435 220.404 22.145ZM229.082 18.23C229.832 18.23 230.427 18.415 230.867 18.785C231.307 19.145 231.527 19.655 231.527 20.315C231.527 20.755 231.432 21.145 231.242 21.485C231.052 21.815 230.817 22.075 230.537 22.265C230.257 22.455 229.917 22.61 229.517 22.73C228.847 22.93 228.092 23.03 227.252 23.03C227.282 23.56 227.447 23.99 227.747 24.32C228.047 24.64 228.507 24.8 229.127 24.8C229.747 24.8 230.367 24.58 230.987 24.14L231.557 25.355C231.357 25.535 231.017 25.72 230.537 25.91C230.067 26.1 229.527 26.195 228.917 26.195C227.697 26.195 226.802 25.86 226.232 25.19C225.662 24.51 225.377 23.58 225.377 22.4C225.377 21.22 225.702 20.23 226.352 19.43C227.002 18.63 227.912 18.23 229.082 18.23ZM228.392 21.665C228.762 21.595 229.102 21.45 229.412 21.23C229.722 21 229.877 20.73 229.877 20.42C229.877 19.81 229.577 19.505 228.977 19.505C228.417 19.505 227.987 19.73 227.687 20.18C227.387 20.62 227.222 21.15 227.192 21.77C227.632 21.76 228.032 21.725 228.392 21.665ZM232.909 25.55V16.94C232.909 16.71 232.784 16.59 232.534 16.58L232.009 16.55V15.305H234.649V18.86C235.099 18.44 235.704 18.23 236.464 18.23C237.404 18.23 238.149 18.55 238.699 19.19C239.249 19.82 239.524 20.71 239.524 21.86C239.524 24.75 238.314 26.195 235.894 26.195C235.374 26.195 234.824 26.13 234.244 26C233.674 25.88 233.229 25.73 232.909 25.55ZM234.649 20.69V24.575C235.029 24.775 235.469 24.875 235.969 24.875C237.109 24.875 237.679 23.95 237.679 22.1C237.679 20.41 237.119 19.565 235.999 19.565C235.639 19.565 235.324 19.67 235.054 19.88C234.784 20.09 234.649 20.36 234.649 20.69ZM243.701 24.905C244.791 24.905 245.336 24.025 245.336 22.265C245.336 21.375 245.211 20.7 244.961 20.24C244.721 19.78 244.311 19.55 243.731 19.55C243.161 19.55 242.741 19.77 242.471 20.21C242.201 20.65 242.066 21.25 242.066 22.01C242.066 23.42 242.326 24.305 242.846 24.665C243.076 24.825 243.361 24.905 243.701 24.905ZM240.251 22.22C240.251 21.48 240.361 20.84 240.581 20.3C240.801 19.75 241.096 19.33 241.466 19.04C242.176 18.5 242.961 18.23 243.821 18.23C244.421 18.23 244.926 18.33 245.336 18.53C245.756 18.72 246.081 18.945 246.311 19.205C246.551 19.455 246.751 19.825 246.911 20.315C247.081 20.795 247.166 21.365 247.166 22.025C247.166 23.405 246.831 24.45 246.161 25.16C245.491 25.87 244.631 26.225 243.581 26.225C242.541 26.225 241.726 25.89 241.136 25.22C240.546 24.54 240.251 23.54 240.251 22.22ZM251.292 24.905C252.382 24.905 252.927 24.025 252.927 22.265C252.927 21.375 252.802 20.7 252.552 20.24C252.312 19.78 251.902 19.55 251.322 19.55C250.752 19.55 250.332 19.77 250.062 20.21C249.792 20.65 249.657 21.25 249.657 22.01C249.657 23.42 249.917 24.305 250.437 24.665C250.667 24.825 250.952 24.905 251.292 24.905ZM247.842 22.22C247.842 21.48 247.952 20.84 248.172 20.3C248.392 19.75 248.687 19.33 249.057 19.04C249.767 18.5 250.552 18.23 251.412 18.23C252.012 18.23 252.517 18.33 252.927 18.53C253.347 18.72 253.672 18.945 253.902 19.205C254.142 19.455 254.342 19.825 254.502 20.315C254.672 20.795 254.757 21.365 254.757 22.025C254.757 23.405 254.422 24.45 253.752 25.16C253.082 25.87 252.222 26.225 251.172 26.225C250.132 26.225 249.317 25.89 248.727 25.22C248.137 24.54 247.842 23.54 247.842 22.22ZM256.363 24.32V17.015C256.363 16.855 256.333 16.745 256.273 16.685C256.223 16.625 256.128 16.59 255.988 16.58L255.463 16.55V15.305H258.133V21.8C258.683 21.75 259.163 21.58 259.573 21.29C259.983 21 260.263 20.62 260.413 20.15C260.443 20.05 260.458 19.97 260.458 19.91C260.458 19.74 260.363 19.655 260.173 19.655L259.603 19.625V18.455H262.708V19.67L261.988 19.7C261.858 20.72 261.418 21.525 260.668 22.115L262.138 24.755L263.053 24.8V26H260.863L259.153 22.88C258.823 22.97 258.483 23.04 258.133 23.09V24.755H258.148L259.003 24.8V26H255.433V24.86L255.928 24.815C256.078 24.795 256.188 24.755 256.258 24.695C256.328 24.625 256.363 24.5 256.363 24.32Z" fill="white"/>
<rect x="66" y="10" width="21.1538" height="19" rx="2" fill="#FAFAFA"/>
<path d="M84.774 19.5H81.3365V17.125C81.3365 16.4682 81.951 16.5312 82.7115 16.5312H84.0865V13.5625H81.3365C79.0592 13.5625 77.2115 15.1582 77.2115 17.125V19.5H74.4615V22.4688H77.2115V29H81.3365V22.4688H83.399L84.774 19.5Z" fill="#3B5998"/>
</g>
<defs>
<filter id="filter0_d" x="0" y="0" width="331" height="47" filterUnits="userSpaceOnUse" color-interpolation-filters="sRGB">
<feFlood flood-opacity="0" result="BackgroundImageFix"/>
<feColorMatrix in="SourceAlpha" type="matrix" values="0 0 0 0 0 0 0 0 0 0 0 0 0 0 0 0 0 0 127 0"/>
<feOffset dy="4"/>
<feGaussianBlur stdDeviation="2"/>
<feColorMatrix type="matrix" values="0 0 0 0 0 0 0 0 0 0 0 0 0 0 0 0 0 0 0.25 0"/>
<feBlend mode="normal" in2="BackgroundImageFix" result="effect1_dropShadow"/>
<feBlend mode="normal" in="SourceGraphic" in2="effect1_dropShadow" result="shape"/>
</filter>
</defs>
</svg>
