<svg width="16" height="17" viewBox="0 0 16 17" fill="none" xmlns="http://www.w3.org/2000/svg">
<path d="M14.1437 3H1.85625C1.075 3 0.4375 3.63438 0.4375 4.41875V12.925C0.4375 13.7063 1.07187 14.3438 1.85625 14.3438H14.1406C14.9219 14.3438 15.5594 13.7094 15.5594 12.925V4.41875C15.5594 3.63438 14.925 3 14.1437 3ZM13.8031 3.94375L8 8.0875L2.19687 3.94375H13.8031ZM14.6156 12.9219C14.6156 13.1812 14.4031 13.3938 14.1437 13.3938H1.85625C1.59687 13.3938 1.38437 13.1812 1.38437 12.9219V4.52813L7.725 9.05625C7.89062 9.175 8.10937 9.175 8.275 9.05625L14.6156 4.52813V12.9219Z" fill="#A8A8A8"/>
</svg>
