<svg width="25" height="25" viewBox="0 0 25 25" fill="none" xmlns="http://www.w3.org/2000/svg">
<path d="M13.4764 10.9881L2.49484 2.26611C1.96203 1.99772 1.32609 2.02681 0.818393 2.33486C0.308054 2.64159 0 3.18895 0 3.77597V21.2253C0 21.811 0.308054 22.3571 0.818393 22.6651C1.09339 22.8317 1.40542 22.9163 1.7214 22.9163C1.98715 22.9163 2.25157 22.8555 2.49617 22.7339L13.4777 14.0092C14.0066 13.5121 14.4243 13.1392 14.4243 12.498C14.4243 11.8568 14.0687 11.5117 13.4764 10.9881Z" fill="black"/>
<path d="M24.0534 10.9881L13.0718 2.26611C12.539 1.99772 11.9018 2.02681 11.3941 2.33486C10.8837 2.64159 10.5757 3.18895 10.5757 3.77597V21.2253C10.5757 21.811 10.8837 22.3571 11.3941 22.6651C11.6691 22.8317 11.9811 22.9163 12.2971 22.9163C12.5628 22.9163 12.8273 22.8555 13.0718 22.7339L24.0534 14.0092C24.5822 13.5121 25 13.1392 25 12.498C25 11.8568 24.6457 11.5117 24.0534 10.9881Z" fill="black"/>
</svg>
