<svg width="33" height="33" viewBox="0 0 33 33" fill="none" xmlns="http://www.w3.org/2000/svg">
<g clip-path="url(#clip0)">
<path d="M24.6847 21.7382L19.1577 16.2112L24.6847 10.6843C25.2961 10.0729 25.2961 9.08492 24.6847 8.4735L23.9489 7.73772C23.3375 7.12631 22.3495 7.1263 21.7381 7.73772L16.2112 13.2647L10.6842 7.73772C10.0728 7.1263 9.08488 7.12631 8.47346 7.73772L7.73768 8.4735C7.12627 9.08492 7.12627 10.0729 7.73768 10.6843L13.2646 16.2112L7.73768 21.7382C7.12627 22.3496 7.12627 23.3375 7.73768 23.9489L8.47346 24.6847C9.08488 25.2961 10.0728 25.2961 10.6842 24.6847L16.2112 19.1578L21.7381 24.6847C22.3495 25.2961 23.3375 25.2961 23.9489 24.6847L24.6847 23.9489C25.2961 23.3375 25.2961 22.3496 24.6847 21.7382Z" fill="black"/>
</g>
<defs>
<clipPath id="clip0">
<rect width="22.9261" height="22.9261" fill="white" transform="translate(16.2112) rotate(45)"/>
</clipPath>
</defs>
</svg>
