<svg width="121" height="63" viewBox="0 0 121 63" fill="none" xmlns="http://www.w3.org/2000/svg">
<g filter="url(#filter0_d)">
<rect x="4" width="113" height="55" rx="27.5" fill="#014C79"/>
</g>
<path d="M48.2487 35H39.6987V33.542L40.2927 33.488C40.6407 33.452 40.8147 33.284 40.8147 32.984V24.614L39.7887 24.56V23.03H44.1267V24.488L43.5327 24.542C43.1847 24.578 43.0107 24.77 43.0107 25.118V33.146H45.9987C46.1667 33.146 46.2747 33.104 46.3227 33.02C46.3827 32.924 46.4127 32.774 46.4127 32.57V31.31L48.2487 31.436V35ZM53.1914 33.686C54.4994 33.686 55.1534 32.63 55.1534 30.518C55.1534 29.45 55.0034 28.64 54.7034 28.088C54.4154 27.536 53.9234 27.26 53.2274 27.26C52.5434 27.26 52.0394 27.524 51.7154 28.052C51.3914 28.58 51.2294 29.3 51.2294 30.212C51.2294 31.904 51.5414 32.966 52.1654 33.398C52.4414 33.59 52.7834 33.686 53.1914 33.686ZM49.0514 30.464C49.0514 29.576 49.1834 28.808 49.4474 28.16C49.7114 27.5 50.0654 26.996 50.5094 26.648C51.3614 26 52.3034 25.676 53.3354 25.676C54.0554 25.676 54.6614 25.796 55.1534 26.036C55.6574 26.264 56.0474 26.534 56.3234 26.846C56.6114 27.146 56.8514 27.59 57.0434 28.178C57.2474 28.754 57.3494 29.438 57.3494 30.23C57.3494 31.886 56.9474 33.14 56.1434 33.992C55.3394 34.844 54.3074 35.27 53.0474 35.27C51.7994 35.27 50.8214 34.868 50.1134 34.064C49.4054 33.248 49.0514 32.048 49.0514 30.464ZM66.2378 34.982C66.1298 36.314 65.7458 37.292 65.0858 37.916C64.4258 38.54 63.3938 38.852 61.9898 38.852C60.5858 38.852 59.4878 38.654 58.6958 38.258V35.756L60.4058 35.612V36.476C60.4058 36.8 60.5558 37.016 60.8558 37.124C61.1558 37.244 61.5698 37.304 62.0978 37.304C62.8658 37.304 63.4058 37.07 63.7178 36.602C64.0298 36.146 64.1858 35.498 64.1858 34.658V33.668C63.6098 34.34 62.8118 34.676 61.7918 34.676C61.1678 34.676 60.6158 34.556 60.1358 34.316C59.6678 34.076 59.3018 33.752 59.0378 33.344C58.5218 32.528 58.2638 31.568 58.2638 30.464C58.2638 28.892 58.6898 27.704 59.5418 26.9C60.3938 26.084 61.5278 25.676 62.9438 25.676C64.1198 25.676 65.2298 25.898 66.2738 26.342V33.02C66.2738 34.04 66.2618 34.694 66.2378 34.982ZM64.1858 31.328V27.458C63.7658 27.314 63.2858 27.242 62.7458 27.242C62.0138 27.242 61.4498 27.512 61.0538 28.052C60.6698 28.592 60.4778 29.324 60.4778 30.248C60.4778 32.144 61.1018 33.092 62.3498 33.092C62.8658 33.092 63.2978 32.936 63.6458 32.624C64.0058 32.3 64.1858 31.868 64.1858 31.328ZM70.9435 25.946V33.506L71.9695 33.56V35H67.6855V33.632L68.2795 33.578C68.6275 33.542 68.8015 33.35 68.8015 33.002V27.998C68.8015 27.794 68.7655 27.656 68.6935 27.584C68.6335 27.512 68.5195 27.476 68.3515 27.476L67.7215 27.44V25.946H70.9435ZM68.6755 24.398C68.4235 24.146 68.2975 23.828 68.2975 23.444C68.2975 23.06 68.4235 22.742 68.6755 22.49C68.9275 22.226 69.2575 22.094 69.6655 22.094C70.0735 22.094 70.4035 22.226 70.6555 22.49C70.9195 22.742 71.0515 23.06 71.0515 23.444C71.0515 23.828 70.9195 24.146 70.6555 24.398C70.4035 24.638 70.0735 24.758 69.6655 24.758C69.2575 24.758 68.9275 24.638 68.6755 24.398ZM72.5703 27.386V25.946H75.6123V27.116C75.9243 26.672 76.3383 26.324 76.8543 26.072C77.3703 25.808 77.9283 25.676 78.5283 25.676C79.4403 25.676 80.1423 25.94 80.6343 26.468C81.1383 26.984 81.3903 27.764 81.3903 28.808V33.506L82.4163 33.56V35H78.1323V33.632L78.7263 33.578C78.9063 33.554 79.0383 33.506 79.1223 33.434C79.2063 33.35 79.2483 33.2 79.2483 32.984V29.276C79.2483 28.616 79.1463 28.13 78.9423 27.818C78.7383 27.494 78.3483 27.332 77.7723 27.332C77.2083 27.332 76.7583 27.512 76.4223 27.872C76.0863 28.232 75.9183 28.658 75.9183 29.15V33.506L76.9443 33.56V35H72.6603V33.632L73.2543 33.578C73.4343 33.554 73.5663 33.506 73.6503 33.434C73.7343 33.35 73.7763 33.2 73.7763 32.984V27.998C73.7763 27.638 73.6263 27.452 73.3263 27.44L72.5703 27.386Z" fill="white"/>
<defs>
<filter id="filter0_d" x="0" y="0" width="121" height="63" filterUnits="userSpaceOnUse" color-interpolation-filters="sRGB">
<feFlood flood-opacity="0" result="BackgroundImageFix"/>
<feColorMatrix in="SourceAlpha" type="matrix" values="0 0 0 0 0 0 0 0 0 0 0 0 0 0 0 0 0 0 127 0"/>
<feOffset dy="4"/>
<feGaussianBlur stdDeviation="2"/>
<feColorMatrix type="matrix" values="0 0 0 0 0 0 0 0 0 0 0 0 0 0 0 0 0 0 0.25 0"/>
<feBlend mode="normal" in2="BackgroundImageFix" result="effect1_dropShadow"/>
<feBlend mode="normal" in="SourceGraphic" in2="effect1_dropShadow" result="shape"/>
</filter>
</defs>
</svg>
